<svg xmlns="http://www.w3.org/2000/svg" xmlns:xlink="http://www.w3.org/1999/xlink" width="1200" zoomAndPan="magnify" viewBox="0 0 900 1199.999942" height="1600" preserveAspectRatio="xMidYMid meet" version="1.0"><path fill="#61829f" d="M 452.476562 334.492188 C 488.894531 334.242188 585.894531 334.988281 673.1875 403.464844 C 739.617188 455.578125 766.269531 520.191406 778.023438 549.683594 C 832.480469 686.382812 789.277344 811.691406 775.261719 850.398438 C 758.738281 896.058594 734.074219 964.28125 667.667969 1018.6875 C 556.457031 1109.785156 395.175781 1107.246094 281.429688 1051.792969 C 262.890625 1042.773438 190.496094 1005.445312 135.210938 922.128906 C 125.085938 906.871094 74.984375 828.960938 71.757812 715.214844 C 70.679688 677.003906 67.617188 569.933594 140.726562 477.953125 C 187.269531 419.410156 243.769531 393.285156 281.429688 375.875 C 312.023438 361.722656 371.367188 335.042969 452.476562 334.492188 Z M 452.476562 334.492188 " fill-opacity="1" fill-rule="nonzero"/></svg>