
<svg xmlns="http://www.w3.org/2000/svg" xmlns:xlink="http://www.w3.org/1999/xlink" width="1200" zoomAndPan="magnify" viewBox="0 0 900 449.999984" height="600" preserveAspectRatio="xMidYMid meet" version="1.0"><defs><filter x="0%" y="0%" width="100%" height="100%" id="ed9b2af085"><feColorMatrix values="0 0 0 0 1 0 0 0 0 1 0 0 0 0 1 0 0 0 1 0" color-interpolation-filters="sRGB"/></filter><mask id="3dc7cdca94"><g filter="url(#ed9b2af085)"><rect x="-90" width="1080" fill="#000000" y="-44.999998" height="539.99998" fill-opacity="0.25"/></g></mask><clipPath id="92bfbd0b5d"><path d="M 1 0.640625 L 681.28125 0.640625 L 681.28125 448 L 1 448 Z M 1 0.640625 " clip-rule="nonzero"/></clipPath><clipPath id="0b6b39666d"><rect x="0" width="682" y="0" height="448"/></clipPath></defs><g mask="url(#3dc7cdca94)"><g transform="matrix(1, 0, 0, 1, 116, 2)"><g clip-path="url(#0b6b39666d)"><g clip-path="url(#92bfbd0b5d)"><path fill="#87adcf" d="M 289.171875 2.496094 C 306.320312 -1.988281 328.523438 4.308594 338.1875 6.035156 C 351.949219 10.078125 385.371094 7.789062 390.339844 8.582031 C 388.34375 8.5625 362.757812 8.246094 360.539062 9.113281 C 364.484375 10.523438 366.667969 9.941406 370.53125 10.046875 C 406.476562 9.71875 380.441406 8.734375 457.199219 24.832031 C 460.488281 25.539062 463.890625 25.789062 467.097656 26.855469 C 467.101562 26.855469 490.726562 43.605469 490.726562 43.605469 C 500.816406 46.945312 529.09375 54.75 529.578125 54.816406 C 530.4375 56.269531 529.453125 55.125 540.175781 65.847656 C 541.640625 67.347656 542.1875 69.890625 544.398438 70.539062 C 566.078125 79.761719 551.367188 71.027344 577.945312 88.941406 C 578.183594 89.101562 588.972656 96.214844 589.261719 96.277344 C 589.339844 96.542969 603.835938 114.425781 607.523438 118.730469 C 607.609375 118.996094 615.421875 138.359375 616.9375 140.324219 C 631.542969 150.761719 629.84375 143.78125 645.640625 165.4375 C 650.851562 187.65625 647.960938 183.160156 656.382812 196.855469 C 657.433594 198.273438 657.78125 200.042969 658.238281 201.71875 C 665.753906 225.15625 663.753906 218.621094 664.074219 223.84375 C 680.308594 247.5625 679.875 297.597656 681.167969 300.917969 C 681.609375 305.671875 676.386719 340.453125 676.316406 340.722656 C 669.574219 363.695312 668.613281 361.589844 672.519531 379.035156 C 672.941406 380.304688 670.46875 390.546875 669.914062 394.03125 C 665.003906 405.914062 657.09375 414.574219 639.878906 437.976562 C 639.878906 437.976562 623.964844 445.226562 623.964844 445.226562 C 623.960938 445.226562 603.132812 447.976562 603.132812 447.976562 C 601.839844 447.179688 594.914062 444.328125 592.160156 442.496094 C 586.5 441.390625 580.8125 440.445312 575.132812 439.425781 C 563.84375 438.410156 552.101562 428.667969 545.898438 427.953125 C 535.558594 426.398438 525.195312 425.339844 514.847656 423.957031 C 514.035156 423.585938 497.84375 415.207031 497.804688 415.183594 C 494.300781 409.898438 490.734375 404.65625 487.28125 399.339844 C 483.507812 400.851562 475.355469 398.574219 472.660156 398.589844 C 470.675781 397.160156 468.742188 395.664062 466.730469 394.273438 C 436.464844 407.726562 420.089844 404.144531 412.5 405.523438 C 394.734375 414.34375 404.488281 412.703125 375.421875 412.472656 C 374.101562 412.046875 372.722656 412.164062 371.367188 412.050781 C 370.097656 411.578125 364.480469 411.390625 363.125 411.390625 C 361.566406 412.191406 353.375 418.171875 353.199219 418.34375 C 352.597656 418.570312 342.261719 420.742188 341.707031 420.839844 C 338.855469 420.429688 325.679688 421.140625 313.980469 415.605469 C 313.238281 415.191406 312.566406 415.976562 311.910156 416.242188 C 309.273438 418.085938 306.011719 418.894531 303.523438 420.953125 C 303.476562 420.960938 290.839844 425.394531 290.554688 425.539062 C 285.738281 425.625 280.917969 425.507812 276.097656 425.585938 C 271.074219 428.304688 247.28125 434.128906 226.085938 429.597656 C 193.101562 421.046875 205.625 422.636719 187.3125 415.339844 C 186.402344 414.664062 174.667969 403.976562 174.375 403.628906 C 168.226562 396.621094 175.382812 408.625 160.851562 384.484375 C 158.722656 384.484375 156.589844 384.484375 154.460938 384.484375 C 154.460938 384.484375 147.332031 376.882812 147.332031 376.882812 C 146.296875 373.832031 145.683594 370.65625 144.640625 367.605469 C 144.535156 362.652344 144.632812 357.699219 144.597656 352.742188 C 143.394531 352.710938 134.035156 352.097656 133.054688 351.585938 C 68.464844 321.640625 63.40625 334.453125 31.820312 319.132812 C 27.988281 316.996094 25.996094 317.503906 23.710938 314.640625 C 15.011719 302.003906 17.292969 313.980469 12.417969 292.960938 C 12.285156 278.273438 12.613281 278.183594 12.164062 277.5625 C 6.535156 268.628906 6.808594 266.953125 3.9375 262.945312 C 3.253906 260.40625 -0.640625 243.652344 1.855469 236.878906 C 1.996094 231.148438 2.523438 231.675781 16.386719 204.710938 C 16.96875 202.921875 15.832031 201.25 15.457031 199.546875 C 12.679688 184.671875 13.585938 185.617188 16.644531 172.925781 C 16.644531 172.925781 26.160156 157.742188 26.160156 157.742188 C 27.398438 156.972656 39.15625 145.832031 39.425781 145.617188 C 40.859375 145.042969 42.324219 144.542969 43.769531 143.992188 C 43.867188 135.09375 42.964844 137.863281 46.492188 123.210938 C 52.929688 116.339844 48.824219 116.335938 80.796875 94.75 C 82.105469 92.652344 85.9375 90.246094 87.945312 88.074219 C 88.210938 87.910156 103.855469 73.996094 107.507812 72.777344 C 112.117188 72.082031 128.875 66.742188 131.558594 66.324219 C 133.070312 66.222656 134.628906 66.511719 136.101562 66.011719 C 138.441406 66.011719 140.675781 65.164062 143.015625 65.164062 C 145.582031 61.832031 148.792969 59.097656 153.003906 53.773438 C 174.742188 41.6875 159.058594 45.589844 183.21875 41.445312 C 185.382812 40.917969 187.695312 40.582031 189.871094 41.21875 C 189.871094 41.21875 196.792969 41.734375 196.792969 41.734375 C 199.113281 42.464844 201.535156 41.777344 203.886719 41.660156 C 205.273438 39.035156 211.488281 34.667969 214.1875 32.070312 C 238.53125 20.074219 233.789062 22.035156 263.667969 22.269531 C 264.710938 22.714844 265.761719 23.164062 266.867188 23.472656 C 267.738281 21.453125 279.171875 5.246094 280.414062 4.9375 C 283.320312 4.09375 286.328125 3.585938 289.171875 2.496094 M 298.042969 6.140625 C 296.058594 6.589844 294.074219 7.035156 292.121094 7.605469 C 290.90625 7.523438 289.726562 7.863281 288.660156 8.40625 C 285.925781 8.945312 275.335938 24.328125 275.097656 25.726562 C 274.820312 25.296875 273.777344 25.203125 273.667969 25.785156 C 273.910156 26.164062 274.617188 26.515625 275.003906 26.179688 C 276.878906 27.007812 278.871094 27.550781 280.746094 28.390625 C 281.957031 28.851562 283.335938 29.644531 284.625 28.953125 C 284.625 28.953125 301.660156 22.746094 305.273438 21.210938 C 305.539062 21.089844 323.695312 17.632812 345.210938 22.113281 C 349.359375 22.390625 362.210938 21.886719 367.636719 22.429688 C 366.871094 22.738281 366.089844 22.988281 365.316406 23.265625 C 363.984375 23.253906 362.679688 23.550781 361.398438 23.886719 C 337.253906 30.578125 336.972656 27.71875 326.246094 27.480469 C 323.996094 26.308594 321.394531 27.296875 319.007812 27.363281 C 305.03125 27.199219 302.707031 27.9375 285.007812 37.117188 C 284.996094 37.113281 262.78125 29 262.371094 28.90625 C 260.625 28.078125 238.136719 28.269531 237.089844 28.941406 C 234.066406 29.707031 231.417969 31.390625 228.621094 32.695312 C 222.753906 35.398438 223.964844 32.71875 218.441406 38.582031 C 218.441406 38.582031 209.859375 46.816406 209.859375 46.816406 C 209.859375 46.816406 185.496094 48.058594 179.882812 48.589844 C 162.851562 59.125 167.753906 55.300781 157.578125 64.351562 C 155.4375 66.824219 152.21875 68.28125 150.707031 71.289062 C 143.4375 85.503906 145.730469 81.515625 141.617188 83.046875 C 140.558594 82.964844 139.429688 82.859375 138.476562 83.429688 C 138.207031 83.4375 126.523438 85.015625 126.113281 85.175781 C 106.4375 98.496094 93.742188 105.984375 85.546875 124.464844 C 86.34375 124.914062 87.148438 125.351562 87.945312 125.800781 C 68.910156 155.296875 48.695312 152.679688 45.9375 173.722656 C 45.269531 174.859375 45.230469 176.21875 45.949219 177.339844 C 46.320312 179.089844 46.808594 180.832031 47.417969 182.519531 C 47.417969 182.519531 65.371094 184.84375 65.371094 184.84375 C 66.070312 180.121094 66.4375 181.128906 66.601562 178.699219 C 67.066406 177.355469 67.226562 175.851562 68.136719 174.703125 C 69.503906 173.09375 76.488281 161.472656 77.75 160.039062 C 77.835938 159.941406 89.648438 150.496094 90.011719 150.28125 C 91.578125 149.59375 93.316406 149.445312 94.945312 148.933594 C 95.820312 148.945312 96.695312 148.9375 97.570312 148.925781 C 98.53125 145.46875 97.816406 137.382812 100.21875 132.40625 C 102.289062 130.46875 104.507812 126.355469 109.484375 120.074219 C 115.765625 115.167969 123.753906 107.144531 127.941406 104.566406 C 128.210938 104.4375 149.753906 94.234375 152.171875 93.421875 C 135.105469 107.441406 110.96875 117.402344 106.929688 139 L 106.949219 138.699219 C 106.65625 140.929688 106.84375 143.207031 106.394531 145.425781 L 106.753906 145.441406 C 108.347656 146.273438 107.71875 145.65625 123.179688 148.054688 L 122.886719 148.046875 C 124.863281 148.246094 126.847656 148.410156 128.839844 148.414062 C 132.929688 143.308594 135.769531 140.886719 136.152344 125.632812 C 137.117188 129.925781 136.945312 131.1875 137.839844 133.660156 C 138.171875 140.695312 139.964844 131.316406 137.570312 151.707031 C 156.710938 165.160156 130.441406 154.152344 176.726562 154.527344 C 176.726562 154.527344 183.117188 155.652344 197.203125 157.257812 C 203.976562 143.441406 202.074219 143.730469 204.257812 138.613281 C 204.3125 138.863281 204.269531 151.945312 204.265625 152.203125 C 204.234375 157.496094 212.046875 172.070312 212.878906 175.351562 C 213.171875 177.644531 213.183594 180.019531 214.015625 182.207031 C 215.324219 203.058594 227.90625 217.152344 229.109375 218.992188 C 206.859375 206.503906 212.996094 172.449219 196.449219 166.082031 C 186.308594 162.648438 197.789062 163.070312 158.796875 163.132812 C 155.808594 163.054688 153.628906 165.773438 146.847656 169.777344 C 144.980469 170.769531 137.261719 191.292969 137.21875 191.875 C 134.773438 211.351562 134.429688 207.285156 135.878906 210.585938 C 137.050781 212.726562 137.421875 215.296875 139 217.210938 C 138.375 217.808594 139.476562 218.921875 140.085938 218.308594 C 144.914062 223.308594 167.539062 229.011719 178.601562 242.632812 C 162.277344 238.550781 139.96875 228.019531 139.65625 227.71875 C 128.609375 217.300781 133.519531 224.511719 128.585938 215.722656 C 128.335938 214.199219 125.777344 207.480469 124.945312 205.886719 C 124.914062 205.410156 124.882812 204.941406 124.859375 204.46875 C 117.34375 204.34375 107.136719 204.421875 107.136719 204.421875 C 108.878906 203.46875 121.082031 199.042969 124.539062 198.214844 C 124.539062 198.214844 131.488281 176.5625 131.488281 176.5625 C 132.082031 175.769531 132.328125 174.8125 132.375 173.839844 C 132.496094 173.574219 136.226562 166.882812 137.164062 165.621094 C 132.757812 160.476562 132.519531 159.089844 131.054688 158.691406 C 117.058594 154.53125 116.285156 151.601562 103.882812 154.714844 C 102.3125 154.683594 96.839844 155.34375 94.878906 156.269531 C 88.351562 162.277344 79.382812 169.785156 78.914062 171.28125 C 76.671875 178.394531 71.484375 190.417969 69.921875 196.519531 C 69.019531 198.015625 69.242188 215.328125 69.871094 216.59375 C 70.636719 220.988281 72.140625 225.210938 73.261719 229.519531 C 73.667969 231.609375 75.699219 232.609375 77.304688 233.6875 C 79.878906 235.285156 82.140625 237.339844 84.664062 239.011719 C 92.421875 239.949219 95.648438 238.546875 103.359375 236.269531 C 116.039062 274.785156 112.234375 261.429688 123.164062 278.960938 C 139.976562 289.4375 172.957031 295.378906 181.121094 277.226562 C 181.316406 275.6875 181.632812 273.699219 180.34375 272.546875 C 173.449219 265.566406 174.539062 263.675781 151.464844 258.527344 C 149.773438 257.96875 149.875 258.265625 139.730469 258.167969 C 138.191406 258.109375 137.722656 258.558594 132.652344 259.757812 C 130.441406 260.28125 128.171875 260.441406 125.941406 260.839844 C 128.230469 259.625 129.839844 257.414062 132.207031 256.351562 C 148.996094 251.800781 152.925781 254.523438 162.539062 254.492188 C 173.011719 254.734375 194.804688 274.441406 198.234375 274.742188 C 200.167969 275.539062 206.703125 275.914062 206.96875 275.914062 C 207.5625 276.140625 208.234375 276.207031 208.816406 275.886719 C 216.890625 275.167969 215.359375 274.808594 217.714844 270.125 C 218.355469 269.097656 217.792969 267.894531 217.519531 266.851562 C 217.753906 263.191406 213.488281 260.664062 211.644531 258.054688 C 186.011719 228.941406 193.875 238.515625 190.410156 231.867188 C 165.703125 182.941406 179.191406 206.167969 173.953125 193.429688 C 173.683594 192.894531 173.40625 192.496094 164.371094 188.433594 C 168.222656 188.574219 171.6875 190.578125 175.484375 190.960938 C 178.308594 187.492188 180.3125 179.816406 183.167969 176.863281 C 181.824219 189.257812 179.519531 195.6875 187.476562 213.050781 C 187.703125 214.546875 188.234375 215.972656 189.015625 217.269531 C 190.535156 225.832031 194.253906 228.050781 202.492188 240.332031 C 203.261719 241.414062 219.898438 254.78125 220.132812 254.886719 C 242.335938 257.253906 228.398438 256.484375 240.109375 254.082031 C 241.046875 253.792969 242.164062 253.851562 242.890625 253.09375 C 247.230469 248.929688 246.640625 249.148438 246.621094 244.816406 C 245.683594 235.875 248.492188 242.574219 242.554688 221.25 C 242.265625 219.273438 244.542969 210.898438 245.175781 205.257812 C 246.789062 202.867188 258.191406 185.121094 259.371094 182.992188 C 264.488281 166.050781 268.578125 150.097656 253.265625 141.371094 C 241.855469 136.019531 246.398438 136.222656 228.347656 136.464844 C 223.203125 127.558594 212.90625 115.386719 212.640625 115.117188 C 211.480469 114.816406 198.648438 112.589844 195.992188 114.34375 C 183.941406 122.632812 186.699219 117.554688 183.203125 128.820312 C 182.5625 130.765625 181.882812 132.707031 181.40625 134.707031 C 180.851562 131.476562 182.554688 121.957031 182.378906 119.316406 C 182.683594 118.449219 182.757812 117.417969 183.519531 116.800781 C 186.53125 114.195312 192.773438 109.988281 194.609375 107.683594 C 197.765625 106.875 204.75 109.277344 209.578125 109.351562 C 211.328125 109.917969 213.207031 109.785156 214.984375 110.226562 C 217.351562 111.621094 219.25 113.652344 221.324219 115.425781 C 233.855469 124.699219 220.65625 122.972656 263.03125 135.738281 C 265.597656 136.566406 265.515625 138.28125 269.5625 141.289062 C 275.460938 134.171875 284.503906 121.265625 300.808594 121.121094 C 299.988281 119.523438 301.140625 117.753906 301.160156 116.085938 C 301.902344 113.996094 302.320312 111.808594 302.640625 109.621094 C 303.285156 108.148438 303.769531 106.609375 304.453125 105.152344 C 316.96875 82.679688 307.695312 94.507812 317.390625 83.753906 C 321.433594 79.832031 325.230469 75.65625 329.464844 71.9375 C 313.683594 95.035156 314.066406 99.972656 308.65625 120.71875 C 310.371094 120.5 312.101562 120.597656 313.828125 120.546875 C 311.988281 121.085938 310.164062 121.679688 308.296875 122.101562 C 308.222656 122.507812 308.152344 122.914062 308.085938 123.320312 C 307.554688 123.238281 307.027344 123.148438 306.5 123.105469 C 306.511719 122.328125 304.695312 122.261719 304.59375 122.976562 C 303.886719 122.949219 303.1875 123.078125 302.542969 123.332031 C 300.214844 123.523438 292.558594 125.546875 290.5625 126.40625 C 279.980469 135.042969 279.917969 139.4375 272.859375 150.082031 C 272.457031 150.679688 272.582031 150.117188 272.59375 164.53125 C 272.660156 166.410156 268.597656 177.351562 268.109375 178.609375 C 264.472656 187.515625 271.175781 176 256.3125 197.074219 C 255.257812 198.632812 253.707031 199.871094 253.089844 201.703125 C 252.015625 204.425781 250.175781 206.871094 249.683594 209.800781 C 249.671875 210.066406 249.265625 222.566406 250.183594 224.292969 C 251.867188 235.167969 253.164062 235.640625 254.855469 238.007812 C 256.035156 239.3125 256.792969 241.03125 258.277344 242.039062 C 266.707031 242.652344 266.882812 241.769531 267.824219 240.707031 C 269.03125 239.296875 270.488281 238.117188 271.574219 236.605469 C 273.78125 233.796875 276.996094 227.738281 278.265625 226.496094 C 278.53125 226.246094 287.703125 219.351562 289.363281 218.546875 C 305.6875 210.382812 302.066406 205.765625 311.65625 185.566406 C 319.578125 170.730469 319.640625 162.835938 340.503906 141.257812 C 339.242188 144.417969 336.878906 146.941406 335.429688 149.992188 C 333.761719 151.796875 323.824219 169.085938 322.132812 171.039062 C 317.625 181.40625 311.875 208.429688 299.351562 221.082031 C 294.699219 223.207031 290.0625 225.371094 285.554688 227.796875 C 285.554688 227.796875 281.425781 234.515625 281.425781 234.515625 L 281.425781 234.175781 C 281.207031 236.65625 281.25 239.171875 281.394531 241.652344 L 281.394531 241.324219 C 282.097656 242.152344 282.90625 242.878906 283.648438 243.671875 C 297.695312 242.734375 278.824219 246.320312 313.628906 235.714844 C 318.015625 234.449219 333.070312 225.328125 337.363281 223.601562 C 337.417969 223.550781 346.175781 213.886719 346.539062 213.347656 C 346.914062 212.8125 355.136719 197.609375 356.433594 196.464844 C 354.769531 201.902344 346.855469 223.640625 346.855469 223.640625 L 346.738281 223.300781 C 346.796875 225.90625 343.757812 224.730469 362.257812 227.292969 C 362.566406 227.121094 362.867188 226.917969 363.15625 226.699219 C 367.605469 221.003906 376.191406 217.339844 379.003906 210.714844 C 389.648438 193.851562 397.167969 170.882812 400.484375 151.441406 C 400.738281 150.707031 408.40625 141.644531 410.15625 139.902344 C 416.296875 136.636719 448.257812 119.464844 452.765625 114.1875 C 461.382812 100.175781 458.210938 90.902344 459.773438 86.542969 C 459.707031 86.414062 459.574219 86.152344 459.503906 86.019531 C 458.710938 80.953125 458.863281 76.492188 458.214844 74.433594 C 458.257812 74.121094 458.34375 73.503906 458.390625 73.191406 C 459.414062 75.523438 463.851562 99.148438 463.917969 99.417969 C 464.488281 99.257812 490.714844 96.664062 496.105469 97.960938 C 496.105469 97.960938 518.480469 99.867188 518.480469 99.867188 C 518.476562 100.625 519.902344 100.464844 520.433594 100.253906 C 521.058594 100.609375 536.550781 104.476562 536.816406 104.519531 L 536.777344 104.8125 C 536.945312 104.800781 537.289062 104.777344 537.457031 104.765625 C 537.601562 86.3125 532.246094 80.917969 531.59375 74.695312 C 531.652344 74.773438 538.886719 86.035156 542.234375 90.703125 C 542.472656 94.457031 544.753906 103.695312 545.234375 104.847656 C 553.171875 112.808594 560.136719 118.273438 561.070312 119.910156 C 560.835938 120.289062 561.203125 120.792969 561.480469 121.066406 C 561.875 121.078125 562.117188 120.425781 561.972656 120.101562 L 562.246094 120.175781 C 563.320312 117.714844 565.222656 115.542969 565.796875 112.914062 C 566.609375 112.824219 566.308594 111.246094 566.1875 110.613281 C 566.792969 108.886719 566.996094 106.976562 567.300781 105.160156 L 567.722656 105.15625 C 567.691406 102.164062 567.777344 99.171875 567.683594 96.1875 L 567.769531 95.925781 C 567.878906 96.4375 572.65625 108.785156 573.207031 110.101562 C 573.472656 110.238281 583.820312 113.503906 584.945312 113.304688 C 584.855469 114.003906 586.132812 114.023438 586.535156 113.671875 C 586.535156 113.671875 588.410156 114.199219 596.371094 118.359375 C 597.183594 118.753906 597.980469 119.351562 598.941406 119.257812 C 582.601562 96.769531 580.464844 95.617188 546.222656 75.453125 C 536.6875 73.804688 541.769531 70.742188 511.863281 69.65625 C 512.425781 69.414062 513.019531 69.222656 513.601562 69.003906 C 515.300781 68.910156 526.621094 67.75 530.886719 66.570312 C 531.523438 66.769531 533.113281 67.074219 533.296875 66.28125 C 536.222656 67.085938 537.316406 68.28125 541.050781 69.292969 C 541.050781 69.292969 535.273438 64.53125 531.910156 61.410156 C 528.660156 59.152344 527.734375 55.882812 519.550781 55.851562 L 519.535156 55.535156 C 517.292969 55.457031 515.121094 54.785156 512.890625 54.632812 C 512.144531 54.246094 511.292969 54.339844 510.5 54.398438 C 510.460938 53.671875 509.070312 53.824219 508.570312 54.046875 C 508.445312 53.941406 508.195312 53.730469 508.070312 53.625 C 507.402344 53.628906 506.746094 53.640625 506.097656 53.632812 L 506.09375 53.296875 C 500.84375 52.957031 495.734375 51.042969 490.4375 51.402344 C 487.832031 52.039062 472.875 54.617188 469.492188 54.765625 L 469.476562 55.117188 C 468.703125 55.140625 467.894531 55.039062 467.183594 55.386719 C 464.34375 55.5625 456.109375 57.019531 456.046875 57.019531 L 456.042969 57.390625 C 455.777344 57.398438 434.9375 65.84375 416.03125 79.316406 C 415.765625 79.550781 409.65625 93.207031 408.6875 95.878906 C 408.105469 97.769531 405.8125 98.25 404.980469 99.929688 C 403.398438 100.734375 395.972656 106.628906 394.804688 108.242188 C 391.871094 109.847656 375.640625 120.34375 375.640625 120.34375 C 375.375 120.46875 354.679688 131.300781 353.785156 132.078125 C 352.980469 132.289062 352.1875 132.542969 351.390625 132.753906 C 354.261719 130.234375 377.230469 113.320312 380.5 111.011719 C 391.777344 102.289062 380.839844 112.429688 404.25 89.195312 C 404.882812 88.5625 405.496094 87.875 405.765625 87.003906 C 410.671875 73.902344 410.972656 81.210938 412.589844 63.222656 C 413.378906 66.445312 413.808594 69.746094 414.390625 73.011719 C 417.925781 71.210938 429.082031 61.941406 438.203125 54.902344 C 439.863281 54.644531 446.367188 52.707031 446.707031 52.574219 C 447.78125 52.484375 448.847656 52.253906 449.820312 51.769531 C 450.789062 51.621094 451.769531 51.441406 452.691406 51.082031 C 453.753906 50.984375 454.816406 50.75 455.792969 50.289062 C 456.644531 50.164062 457.488281 49.949219 458.285156 49.605469 C 459.351562 49.503906 460.414062 49.261719 461.386719 48.792969 C 466.140625 47.914062 470.769531 46.429688 475.398438 45.070312 C 476.488281 45.765625 475.878906 43.613281 475.164062 44.53125 C 474.65625 43.390625 473.640625 42.605469 472.753906 41.769531 C 447.289062 21.0625 482.082031 40.683594 400.191406 19.492188 C 395.910156 18.675781 391.769531 17.242188 387.453125 16.605469 C 386.164062 16.027344 379.8125 14.492188 377.640625 14.292969 C 376.792969 13.949219 359.074219 14.84375 357.777344 15.019531 C 333.894531 18.046875 335.585938 11.984375 323.117188 9.15625 C 320.921875 7.984375 302.472656 6.105469 302.207031 6.082031 C 300.871094 5.496094 299.402344 5.878906 298.042969 6.140625 M 271.28125 24.898438 C 271.367188 26.097656 272.445312 24.328125 271.28125 24.898438 M 272.304688 25.269531 C 272.363281 26.496094 273.414062 24.699219 272.304688 25.269531 M 541.277344 69.375 C 541.503906 69.609375 541.503906 69.609375 541.277344 69.375 M 119.089844 77.777344 C 112.296875 81.03125 105.691406 84.707031 98.761719 87.679688 C 98.171875 87.917969 62.671875 118.953125 62.40625 119.21875 C 61.625 119.5625 61.007812 120.148438 60.5 120.816406 C 54.734375 124.679688 55.449219 124.671875 53.792969 128.253906 C 51.5625 133.996094 50.105469 132.390625 51.035156 141.402344 C 78.847656 132.707031 74.246094 135.394531 79.707031 123.917969 C 84.726562 111.507812 98.75 94.90625 99.015625 94.675781 C 115.378906 83.585938 119.210938 82.761719 131.605469 76.910156 C 121.605469 76.40625 120.796875 77.070312 119.089844 77.777344 M 491.824219 102.441406 C 487.765625 102.820312 483.738281 103.503906 479.667969 103.753906 C 478.242188 104.234375 476.621094 103.675781 475.292969 104.386719 C 468.777344 104.375 469.273438 104.78125 459.960938 116.152344 C 441.566406 129.507812 455.199219 122.371094 431.625 132.625 C 424.300781 135.441406 430.21875 132.703125 415.847656 143.734375 C 409.382812 149.929688 413.832031 143.085938 405.382812 159.417969 C 404.515625 160.976562 404.167969 162.757812 403.292969 164.316406 L 403.363281 163.984375 C 399.746094 173.128906 399.558594 191.628906 380.945312 226.902344 C 382.59375 227.054688 400.660156 223.992188 408.625 219.421875 C 409.164062 219.140625 423.746094 211.875 424.207031 211.488281 C 426.300781 209.8125 432.230469 205.769531 432.996094 205.414062 C 432.636719 206.351562 422.226562 217.578125 421.496094 218.496094 C 419.710938 219.78125 411.746094 222.613281 409.664062 224.363281 C 409.207031 224.03125 408.660156 224.621094 408.425781 224.96875 C 408.101562 225.507812 409.023438 225.628906 409.285156 225.300781 L 409.175781 225.558594 C 418.105469 227.613281 416.3125 229.085938 421.808594 228.660156 C 421.910156 229.375 423.328125 229.347656 423.824219 228.960938 C 427.089844 230.246094 474.367188 235.667969 485.222656 231.84375 C 489.019531 231.367188 500.996094 228.042969 502.175781 227.847656 C 505.632812 225.761719 508.628906 222.984375 512.140625 220.988281 C 513.546875 219.710938 516.558594 214.855469 518.003906 213.957031 C 517.882812 214.734375 517.6875 215.5 517.628906 216.289062 C 517.191406 217.402344 517.035156 218.601562 516.835938 219.773438 C 516.441406 220.554688 516.140625 221.394531 516.109375 222.277344 C 515.628906 223.21875 515.347656 224.246094 515.390625 225.3125 C 514.855469 225.628906 499.882812 239.582031 491.386719 243.878906 C 534.726562 261.265625 543.859375 276.082031 553.683594 286.226562 C 553.246094 286.097656 552.8125 285.972656 552.390625 285.855469 C 552.160156 285.25 529.125 266.082031 527.925781 266.109375 C 496.3125 248.3125 458.167969 239.089844 452.898438 236.777344 C 448.835938 236.28125 429.332031 231.988281 424.359375 231.304688 C 423.878906 231.207031 386.882812 229.53125 386.554688 229.691406 C 386.042969 229.242188 385.691406 229.328125 385.496094 229.9375 C 383.390625 229.707031 376.773438 230.78125 376.464844 230.898438 C 375.414062 230.917969 368.101562 231.730469 367.375 232.085938 C 366.148438 232.074219 347.574219 234.117188 347.199219 234.367188 C 338.6875 234.605469 299.53125 243.792969 287.839844 246.527344 C 216.9375 269.585938 208.851562 281.5625 177.734375 305.585938 C 170.636719 310.523438 172.167969 309.050781 157.125 333.160156 C 155.285156 335.816406 152.445312 348.703125 152.210938 349.894531 C 151.570312 354.6875 153.132812 359.382812 153.34375 364.144531 C 153.359375 364.164062 157.953125 371.457031 157.972656 371.472656 C 166.316406 377.1875 166.105469 374.277344 176.15625 375.28125 C 174.34375 376.648438 170.390625 383.308594 168.050781 384.839844 C 169.066406 386.214844 169.621094 387.890625 170.734375 389.191406 C 176.355469 400.589844 191.375 410.996094 202.636719 416.816406 C 250.742188 428.898438 241.703125 427.714844 262.324219 422.417969 C 244.113281 407.636719 242.59375 407.289062 240.851562 404.976562 C 252.3125 411.089844 252.105469 415.152344 279.324219 417.847656 C 281.421875 418.390625 298.730469 414.667969 298.996094 414.523438 C 320.769531 407.285156 314.101562 409.992188 319.042969 410.957031 C 322.621094 412.445312 326.53125 412.972656 330.386719 412.84375 C 331.507812 413.617188 332.96875 413.148438 334.246094 413.332031 C 335.226562 413.761719 336.367188 413.757812 337.351562 413.335938 C 338.382812 413.234375 339.523438 413.46875 340.449219 412.890625 C 349.550781 413.230469 349.476562 411.570312 366.175781 400.664062 C 370.265625 401.851562 376.585938 404.5625 377.824219 404.644531 C 378.652344 405.222656 395.265625 406.253906 395.855469 406.242188 C 399.757812 404.824219 401.964844 404.742188 417.574219 398.667969 C 419.105469 397.972656 424.40625 398.148438 425.851562 397.644531 C 440.675781 396.910156 438.28125 396.871094 452.617188 392.613281 C 468.453125 387.625 458.675781 394.542969 476.785156 373.753906 C 476.8125 373.957031 476.863281 374.367188 476.894531 374.574219 C 476.8125 374.75 475.824219 381.871094 475.484375 389.644531 C 477.699219 389.628906 479.832031 390.320312 482.023438 390.539062 C 486.574219 391.792969 489.878906 389.972656 495.929688 389.621094 C 513.34375 383.40625 516.664062 379.460938 520.933594 374.679688 C 530.09375 364.109375 523.554688 376.761719 539.214844 351.875 C 561.039062 317.214844 552.339844 327.574219 560.328125 310.300781 C 560.046875 310.273438 534.34375 306.824219 531.539062 306.375 C 530 306.007812 470.179688 301.53125 464.828125 305.335938 C 457.535156 305.328125 433.210938 309.878906 428.34375 310.3125 C 427.046875 310.191406 425.800781 309.710938 424.484375 309.785156 C 423.554688 309.179688 422.402344 309.421875 421.363281 309.332031 C 407.035156 306.199219 417.769531 310.792969 397.789062 300.832031 C 396.753906 300.113281 358.929688 304.011719 358.023438 304.570312 C 357.191406 304.566406 356.328125 304.53125 355.546875 304.84375 C 354.019531 305.066406 352.300781 304.496094 350.925781 305.332031 C 346.925781 305.035156 323.226562 307.113281 311.367188 310.84375 C 273.542969 311.203125 243.769531 318.738281 213.3125 333.324219 C 201.273438 340.109375 215.484375 328.167969 192.925781 352.902344 C 191.574219 358.273438 190.277344 363.664062 188.769531 369 C 188.492188 363.777344 188.738281 358.546875 188.582031 353.320312 C 187.558594 354.859375 179.832031 365.34375 178.117188 365.976562 C 180.386719 363.023438 188.054688 350.988281 188.445312 350.207031 C 181.773438 349.621094 187.679688 351.957031 174.019531 344.621094 C 173.4375 342.671875 172.984375 340.550781 172.996094 338.484375 C 176.820312 339.4375 180.671875 340.320312 184.488281 341.269531 C 186.972656 341.078125 189.5 340.714844 191.882812 340.035156 C 192.496094 340.226562 194.113281 340.453125 194.15625 339.605469 C 195.339844 339.394531 196.152344 338.3125 197.144531 337.691406 C 220.851562 320.824219 198.863281 332.867188 241.269531 315.730469 C 243.082031 315.339844 278.152344 306.121094 283.242188 304.425781 C 280.058594 298.113281 279.230469 298.0625 276.5 283.695312 C 277.324219 281.140625 281.503906 273.023438 282.265625 271.898438 C 282.679688 276.777344 282.296875 281.683594 282.484375 286.566406 C 283.703125 289.035156 283.921875 291.859375 285.199219 294.308594 C 285.308594 294.40625 294.894531 300.804688 296.105469 301.320312 C 298.53125 302.171875 310.882812 303.15625 312.007812 302.808594 C 319.242188 301.15625 326.488281 299.539062 333.644531 297.570312 C 336.585938 297.015625 362.554688 300.050781 366.59375 297.082031 C 368.960938 297.144531 393.769531 294.609375 395.480469 294.390625 C 396.449219 292.269531 399.714844 279.507812 399.78125 279.242188 C 403.796875 277.863281 407.578125 275.847656 411.640625 274.578125 C 409.648438 278.136719 406.945312 281.214844 404.652344 284.566406 C 404.378906 287.875 403.910156 291.195312 403.023438 294.40625 C 417.015625 306.40625 422.621094 303.773438 447.835938 300.824219 C 500.242188 295.359375 530.296875 300.082031 532.800781 300.066406 C 533.101562 300.269531 551.523438 302.457031 554.609375 302.257812 L 554.601562 302.734375 C 555.839844 302.734375 557.085938 302.71875 558.328125 302.785156 C 558.902344 303.027344 559.542969 303.023438 560.167969 303.085938 C 560.070312 302.820312 557.492188 295.449219 557.292969 294.328125 C 560.140625 296.714844 561.625 297.585938 564.746094 300.175781 C 574.269531 290.742188 598.230469 283.859375 602.972656 280.097656 C 602.972656 280.097656 612.644531 258.421875 612.933594 257.871094 C 614.390625 257.84375 615.851562 257.835938 617.3125 257.859375 C 617.3125 257.871094 610.332031 281.78125 610.125 282.324219 C 605.886719 284.734375 601.261719 286.34375 596.964844 288.640625 C 570.980469 301.355469 577.023438 298.050781 574.121094 302.390625 C 555.1875 332.472656 561.050781 321.917969 554.105469 347.730469 C 553.230469 351.824219 553.386719 348.699219 555.574219 355.917969 C 556.558594 357.671875 553.777344 357.28125 572.125 357.253906 C 572.289062 357.4375 598.246094 380.503906 598.90625 380.917969 C 618.953125 384.386719 609.832031 385.28125 616.800781 382.058594 C 621.125 379.953125 642.445312 355.425781 642.050781 324.5 C 644.277344 319.6875 639.453125 308.332031 638.5 304.902344 C 631.925781 308.5625 625.601562 312.679688 618.761719 315.84375 C 639.925781 298.410156 631.808594 308.3125 640.972656 295.265625 C 641.949219 293.28125 641.679688 291.039062 641.699219 288.90625 C 641.90625 288.214844 642.078125 287.503906 642.105469 286.785156 C 642.675781 285.175781 642.410156 283.445312 642.410156 281.78125 L 641.914062 281.804688 C 639.839844 269.152344 640.695312 282.382812 638.632812 261.261719 C 638.445312 258.554688 639.234375 255.894531 639.035156 253.183594 C 639.738281 251.859375 639.394531 250.320312 639.414062 248.894531 C 640.074219 246.199219 640.179688 246.945312 637.179688 243.90625 C 636.277344 242.355469 633.457031 239.914062 632.191406 239.976562 C 632.664062 239.019531 630.5 238.980469 630.980469 239.941406 L 630.710938 239.917969 C 629.730469 241.394531 628.65625 242.824219 627.367188 244.046875 C 620.171875 244.085938 612.976562 244.054688 605.777344 244.0625 L 605.847656 244.46875 L 605.523438 244.46875 C 603.609375 249.445312 596.972656 261.828125 596.167969 263.546875 C 595.902344 263.753906 578.054688 274.78125 577.300781 275.117188 C 577.675781 274.417969 589.355469 261.753906 589.628906 261.5 C 590.648438 259.792969 592.644531 258.78125 593.199219 256.792969 C 594.789062 252.59375 598.824219 244.53125 598.65625 242.878906 C 599.40625 242.878906 599.261719 241.460938 599.042969 240.949219 C 599.675781 240.089844 599.046875 240.847656 600.175781 234.355469 C 598.933594 232.167969 591.699219 223.851562 589.980469 222.625 L 590.296875 222.6875 C 589.800781 222.53125 585.207031 221.265625 583.90625 221.207031 C 581.816406 220.476562 579.605469 220.261719 577.46875 219.738281 C 577.503906 217.554688 578.75 215.59375 578.554688 212.71875 C 578.738281 212.609375 579.097656 212.394531 579.277344 212.285156 C 595.757812 221.777344 595.773438 216.1875 607.851562 233.90625 C 609.546875 234.207031 611.222656 234.609375 612.90625 234.988281 C 614.308594 234.703125 624.792969 231.132812 626.082031 228.871094 C 627.105469 227.308594 629.511719 226.785156 629.820312 224.789062 C 630.253906 223.589844 630.5 214.164062 630.527344 213.898438 C 631.027344 212.667969 630.792969 211.296875 630.832031 210.003906 C 631.496094 209.949219 631.496094 208.007812 630.847656 207.921875 C 630.835938 207.757812 630.808594 207.421875 630.800781 207.253906 C 622.453125 184.6875 622.292969 186.589844 619.996094 185.066406 C 615.445312 182.164062 611.433594 178.503906 606.875 175.617188 C 600.246094 182.128906 581.0625 206.238281 580.480469 207.164062 C 578.617188 207.902344 576.636719 208.464844 574.777344 209.25 C 573.824219 209.324219 572.910156 209.601562 572.070312 210.027344 C 570.449219 210.332031 568.992188 211.132812 567.449219 211.652344 C 566.945312 213.929688 565.894531 216.003906 564.863281 218.078125 C 564.582031 219.464844 564.671875 220.925781 564.792969 222.335938 C 565.414062 223.855469 565.925781 225.414062 566.265625 227.027344 C 566.214844 227.007812 556.304688 222.65625 556.175781 222.613281 C 556.011719 219.726562 556.164062 216.832031 556.117188 213.941406 C 556.382812 213.714844 562.480469 208.1875 563.300781 206.800781 C 563.910156 206.71875 564.566406 206.738281 565.144531 206.453125 C 577.351562 204.96875 576.722656 203.285156 584.800781 195.433594 C 587.167969 193.125 588.230469 189.910156 589.996094 187.1875 C 596.253906 177.15625 595.617188 174.796875 598.6875 167.160156 C 598.191406 166.046875 597.898438 164.859375 597.871094 163.644531 L 597.707031 163.378906 C 595.394531 152.117188 597.636719 156.566406 582.875 144.507812 C 562.664062 136.96875 575.679688 133.777344 555.566406 139.660156 C 534.632812 154.332031 553.5625 142.019531 534.042969 164.464844 C 518.414062 187.382812 530.105469 167.808594 519.523438 193.285156 C 518.921875 194.699219 521.210938 200.152344 521.324219 200.421875 C 521.386719 201.613281 521.644531 202.792969 522.101562 203.902344 C 522.105469 204.085938 522.121094 204.457031 522.128906 204.644531 C 520.9375 203.613281 515.128906 195.945312 514.777344 195.035156 C 514.574219 191.605469 513.289062 188.277344 513.597656 184.820312 C 514.316406 183.816406 524.636719 164.152344 534.535156 154.507812 C 534.785156 153.957031 537 146.808594 537.183594 145.511719 C 537.988281 143.933594 538.15625 142.128906 538.828125 140.5 C 539.078125 139.324219 549.996094 134.480469 554.308594 131.597656 C 553.773438 130.699219 542.402344 114.824219 540.714844 114.222656 C 540.449219 114.105469 525.976562 107.617188 525.128906 107.027344 C 524.796875 106.789062 524.433594 106.683594 524.039062 106.71875 L 524.027344 106.261719 C 522.796875 106.257812 521.574219 106.28125 520.351562 106.191406 C 520.144531 106.109375 507.871094 104.207031 504.988281 104.027344 L 504.980469 103.6875 C 501.617188 103.535156 498.320312 102.707031 494.957031 102.433594 C 493.976562 102.003906 492.800781 102.023438 491.824219 102.441406 M 568.929688 120.554688 C 567.277344 122.296875 565.421875 123.859375 563.90625 125.71875 C 564.640625 127.515625 565.480469 129.320312 566.632812 130.902344 C 569.941406 130.789062 573.226562 131.300781 576.492188 131.796875 C 583.242188 136.316406 597.414062 144.53125 597.414062 144.53125 C 598.570312 145.976562 604.726562 156.410156 605.710938 158.230469 C 606.464844 161.992188 606.851562 165.832031 607.390625 169.636719 C 607.550781 169.691406 607.875 169.792969 608.035156 169.839844 L 608.082031 170.046875 C 611.65625 171.433594 614.753906 173.773438 618.332031 175.160156 C 620.890625 177.210938 623.574219 179.109375 626.164062 181.128906 C 626.929688 178.84375 627.09375 176.359375 628.214844 174.203125 C 607.796875 133.21875 617.929688 151.128906 611.351562 142.546875 C 610.25 140.960938 608.667969 139.785156 607.6875 138.113281 C 607.179688 137.703125 606.644531 137.332031 606.066406 137.0625 C 607.164062 140.632812 609.640625 148.222656 610.164062 152.027344 C 608.761719 150.324219 597.582031 129.453125 597.445312 129.183594 C 586.128906 118.910156 582.578125 120.042969 573.328125 116.292969 C 571.722656 117.558594 570.414062 119.15625 568.929688 120.554688 M 598.78125 119.414062 C 599.011719 119.648438 599.011719 119.648438 598.78125 119.414062 M 60.734375 143.90625 C 59.480469 143.847656 50.738281 146.371094 49.898438 146.746094 C 36.332031 152.859375 40.523438 150.609375 31.136719 161.613281 C 29.523438 163.496094 29.042969 162.734375 24.71875 170.871094 C 21.136719 177.546875 21.515625 175.203125 21.421875 179.082031 C 21.507812 182.265625 20.304688 191 24.117188 196.519531 C 42.582031 195.871094 34.703125 189.519531 40.980469 185.90625 C 38.167969 180.21875 39.40625 180.078125 38.121094 174.640625 C 37.96875 173.792969 37.597656 172.8125 38.238281 172.070312 C 45.238281 161.234375 42.554688 160.996094 51.769531 153.863281 C 52.3125 153.457031 60.554688 145.796875 61.847656 144.234375 C 63.210938 143.878906 60.835938 142.859375 60.734375 143.90625 M 622.144531 150.53125 C 632.84375 173.082031 640.085938 173.617188 631.96875 188.753906 C 638.433594 205.878906 636.046875 207.636719 638.597656 214.992188 C 638.660156 216.0625 638.589844 217.148438 638.90625 218.191406 L 638.988281 217.804688 C 638.875 218.574219 639.09375 217.289062 637.28125 226.167969 C 637.589844 227.714844 640.996094 235.164062 642.910156 240.746094 L 643.105469 240.683594 C 643.363281 241.640625 643.695312 242.585938 644.121094 243.492188 C 644.308594 242.394531 644.492188 241.292969 644.609375 240.183594 C 645.148438 239.578125 647.949219 228.542969 648.382812 222.398438 L 647.972656 222.402344 C 648.152344 217.628906 645.675781 200.421875 644.921875 191.324219 L 644.742188 190.992188 C 643.800781 176.335938 641.140625 171.652344 634.265625 158.847656 C 631.414062 156.476562 624.570312 151.871094 623.316406 151.375 C 623.386719 150.777344 622.480469 150.8125 622.144531 150.53125 M 47.789062 190.589844 C 40.132812 193.546875 43.246094 192.628906 41.390625 201.007812 C 41.324219 201.277344 40.460938 221.875 36.886719 227.480469 C 32.886719 233.929688 29.28125 243.605469 30.355469 251.449219 C 31.949219 261.332031 29.953125 255.855469 35.585938 263.453125 C 36.621094 264.957031 47.355469 273.265625 49.734375 273.96875 C 59.070312 277.242188 61.429688 278.808594 65.667969 280.054688 C 100.320312 290.136719 84.234375 288.816406 106.46875 288.816406 C 99.949219 283.613281 101.605469 282.039062 94.046875 279.324219 C 72.425781 272.8125 73.539062 274.402344 56.648438 262.183594 C 54.804688 260.445312 53.878906 258.023438 52.316406 256.070312 C 48.601562 250.320312 51.945312 258.226562 43.867188 239.929688 C 43.566406 235.9375 44.785156 232.054688 45.035156 228.101562 C 46.578125 226.558594 48.042969 224.929688 49.707031 223.515625 C 48.605469 234.265625 44.933594 241.523438 60.050781 259.527344 C 65.523438 266.816406 106.164062 276.757812 110.53125 281.496094 C 125.691406 297.445312 145.894531 302.949219 167.695312 303.984375 C 172.3125 304.246094 169.460938 303.773438 175.921875 298.554688 C 175.921875 298.554688 185.0625 291.996094 185.0625 291.996094 C 188.582031 287.507812 189.488281 278.8125 189.699219 277.734375 C 188.382812 276.953125 187.09375 276.132812 185.773438 275.367188 C 184.714844 278.832031 183.914062 285.808594 181.839844 287.277344 C 173.09375 293.910156 175.796875 292.964844 172.074219 293.570312 C 170.449219 293.738281 157.882812 294.933594 155.066406 294.476562 C 133.328125 293.636719 138.339844 293.917969 130.105469 288.828125 C 118.074219 281.582031 121.417969 282.539062 116.558594 277.34375 C 115.484375 275.828125 113.929688 274.722656 112.886719 273.1875 C 111.835938 270.90625 110.953125 268.542969 109.824219 266.292969 C 109.488281 266.328125 109.15625 266.359375 108.824219 266.402344 C 108.785156 266.289062 100.453125 245.609375 100.453125 245.609375 C 87.769531 244.160156 68.296875 246.523438 62.160156 208.945312 C 62.59375 202.882812 62.890625 196.808594 63.511719 190.761719 C 59.511719 192.195312 52.847656 188.765625 47.789062 190.589844 M 31.738281 201.714844 C 28.707031 203.441406 25.203125 204.191406 22.3125 206.183594 C 22.3125 206.183594 15.753906 217.933594 15.753906 217.933594 C 10.074219 229.480469 12.40625 227.265625 8.988281 235.367188 C 8.363281 236.839844 8.402344 251.316406 8.902344 253.167969 C 10.347656 262.765625 8.6875 260.574219 14.644531 270.84375 C 14.398438 271.210938 14.820312 271.921875 15.285156 271.832031 C 15.59375 271.648438 15.945312 271.1875 15.742188 270.835938 C 17.285156 268.441406 17.457031 265.769531 22.574219 260.96875 C 22.652344 238.503906 22.042969 248.550781 25.550781 237.078125 C 26.488281 233.375 32.214844 223.277344 32.566406 222.785156 C 34.789062 219.558594 32.960938 222.605469 34.574219 201.414062 C 33.617188 201.390625 32.652344 201.417969 31.738281 201.714844 M 653.640625 211.695312 C 653.5 212.683594 653.523438 213.75 654.167969 214.578125 C 653.742188 217.289062 654.066406 220.058594 653.976562 222.789062 L 654.359375 222.800781 C 654.570312 226.96875 652.789062 236.875 649.898438 242.964844 C 647.441406 248.898438 645.28125 251.488281 645.480469 252.976562 C 650.085938 294.269531 649.539062 268.609375 646.273438 300.941406 C 646.042969 303.90625 644.664062 303.886719 648.679688 314.671875 C 649.054688 327.222656 648.011719 333.570312 648.011719 333.570312 C 653.421875 325.1875 656.195312 303.453125 655.152344 300.808594 C 654.945312 298.414062 655.578125 295.898438 654.746094 293.597656 C 654.652344 291.769531 654.921875 289.886719 654.394531 288.117188 C 654.355469 286.820312 654.625 285.429688 653.949219 284.25 C 654.15625 275.222656 656.847656 242.523438 656.464844 236.214844 C 656.761719 235.757812 656.777344 235.066406 656.546875 234.585938 C 656.640625 234.480469 656.828125 234.257812 656.917969 234.152344 C 656.738281 233.640625 655.445312 218.160156 655.214844 217.867188 C 654.988281 216.859375 654.910156 215.765625 654.367188 214.875 C 654.355469 213.773438 654.011719 212.710938 653.640625 211.695312 M 663.765625 238.738281 C 658.433594 259.328125 664.261719 301.324219 661.761719 309.339844 C 658.761719 325.390625 663.144531 325.265625 626.746094 383.015625 C 624.324219 386.808594 625.347656 386.777344 618.917969 389.839844 C 618.824219 392.261719 619.066406 394.695312 618.761719 397.105469 C 616.230469 408.835938 617.136719 411.226562 615.773438 412.742188 C 605.71875 423.578125 614.75 419.421875 593.957031 423.804688 C 592.496094 424.136719 591.003906 424.082031 589.523438 424.097656 C 586.660156 422.605469 576.140625 424.730469 570.585938 420.828125 C 569.335938 419.914062 558.558594 412.167969 554.816406 410.097656 C 552.238281 409.535156 549.585938 409.179688 546.949219 409.128906 C 545.625 408.472656 544.121094 408.75 542.710938 408.707031 C 515.160156 397.976562 538.972656 410.453125 512.492188 391.1875 C 508.023438 393.832031 503.226562 395.875 498.648438 398.320312 C 502.972656 406.304688 495.820312 399.675781 510.910156 411.785156 C 513.089844 413.175781 515.511719 414.144531 517.796875 415.355469 C 524.035156 418.164062 522.582031 419.574219 530.234375 419.628906 C 532.039062 420.28125 540.996094 420.097656 542.867188 420.527344 C 544.335938 420.75 561.460938 425.835938 572.082031 432.769531 C 573 433.433594 587.667969 436.074219 588.863281 436.066406 C 590.246094 436.625 591.859375 436.648438 593.238281 436.046875 C 620.554688 428.679688 608.570312 434.839844 627.386719 421.378906 C 629.832031 419.699219 632.046875 417.679688 634.675781 416.265625 C 632.839844 419.449219 630.125 421.992188 627.917969 424.898438 C 624.339844 429.097656 625.761719 431.234375 604.183594 440.410156 C 609.421875 440.5 614.675781 440.539062 619.90625 440.398438 C 637.953125 431.21875 641.699219 423.128906 646.039062 419.121094 C 646.269531 418.90625 658.992188 401.304688 659.546875 400.285156 C 660.316406 399.5 661.347656 398.527344 660.976562 397.3125 C 661.980469 391.179688 662.363281 384.933594 663.707031 378.847656 C 654.347656 391.113281 645.449219 401.0625 645.449219 401.0625 C 647.359375 397.363281 658.242188 378.320312 661.710938 370.246094 L 662.191406 370.3125 C 662.191406 370.140625 662.210938 342.753906 662.242188 342.582031 C 664.714844 345.886719 665.664062 350.101562 668.316406 353.277344 C 669.113281 349.957031 674.101562 326.445312 674.175781 323.25 C 674.09375 294.039062 674.371094 295.4375 673.820312 293.972656 C 673.714844 287.851562 672.085938 276.769531 671.886719 276.414062 C 671.253906 256.941406 666.964844 247.769531 663.765625 238.738281 M 28.515625 269.855469 C 27.273438 272.867188 26.828125 276.117188 25.871094 279.222656 C 25.277344 280.546875 28.808594 289.863281 29.835938 291.609375 C 54.253906 307.238281 42.8125 290.914062 105.394531 308.707031 C 115.183594 312.335938 132.921875 326.867188 132.921875 326.867188 C 133.695312 327.769531 134.96875 327.402344 136.007812 327.441406 C 136.820312 327.628906 137.65625 327.691406 138.488281 327.75 C 142.980469 329.511719 148.035156 327.933594 152.386719 325.851562 C 152.046875 325.289062 142.390625 309.6875 140.375 308.800781 C 140.222656 308.722656 112.667969 295.128906 112.503906 295.171875 C 88.660156 298.566406 92.875 297.429688 87.582031 296.703125 C 86.507812 296.140625 85.300781 295.902344 84.101562 295.898438 C 81.902344 295.074219 79.558594 294.804688 77.308594 294.195312 C 57.507812 289.886719 57.980469 287.503906 46.75 283.660156 C 37.664062 280.734375 37.277344 278.289062 35.65625 276.828125 C 33.261719 274.515625 31.015625 272.050781 28.515625 269.855469 M 18.539062 285.054688 C 18.464844 286.058594 18.171875 295.8125 18.765625 297.097656 C 23.742188 308.589844 20.867188 305.828125 25.839844 309.804688 C 33.496094 315.871094 33.988281 315.949219 34.789062 316.140625 C 44.242188 318.410156 47.414062 321.703125 59.371094 322.605469 C 105.617188 328.875 98.414062 332.285156 138.742188 346.910156 C 141.140625 347.035156 143.507812 346.402344 145.890625 346.214844 C 146.480469 343.167969 147.574219 340.222656 147.933594 337.132812 C 139.707031 337.03125 143.859375 341.691406 123.199219 326.335938 C 104.472656 312.140625 109.160156 315.589844 92.160156 310.722656 C 84.328125 308.703125 66.195312 305.515625 63.558594 305.597656 C 63.027344 305.414062 62.464844 305.320312 61.910156 305.28125 L 61.574219 305.011719 C 58.8125 304.449219 43.164062 305.398438 41.300781 304.460938 C 41.035156 304.335938 29.316406 298.746094 28.773438 298.273438 C 22.082031 292.347656 21.128906 292.589844 20.621094 291.136719 C 19.871094 289.128906 19.445312 287.003906 18.539062 285.054688 M 647.671875 333.792969 C 647.074219 334.898438 648.902344 333.863281 647.671875 333.792969 M 518.167969 387 C 530.933594 400.496094 528.960938 398.070312 539.328125 401.277344 C 547.640625 403.128906 537.90625 402.308594 557.59375 399.554688 C 560.117188 403.285156 563.417969 406.414062 565.988281 410.113281 C 567.808594 412.914062 571.261719 413.714844 574.117188 415.039062 C 579.785156 417.191406 579.988281 419.304688 586.773438 419.234375 L 586.769531 418.8125 C 588.460938 418.910156 599.253906 417.890625 599.789062 417.667969 C 603.117188 416.230469 606.5 414.90625 609.820312 413.445312 C 611.207031 408.5 611.460938 403.3125 612.789062 398.355469 C 611.734375 395.085938 609.808594 392.160156 608.929688 388.816406 C 591.316406 383.8125 596.378906 389.164062 589.804688 382.183594 C 589.121094 381.511719 576.554688 367.644531 575.738281 367.136719 C 570.707031 366.296875 568.03125 364.554688 552.714844 362.53125 C 550.910156 362.296875 549.128906 361.9375 547.367188 361.511719 C 546.695312 359.226562 546.160156 356.902344 545.582031 354.59375 C 542.242188 360.988281 518.363281 386.730469 518.167969 387 Z M 518.167969 387 " fill-opacity="1" fill-rule="nonzero"/></g><path fill="#87adcf" d="M 418.867188 45.226562 C 416.300781 45.644531 413.800781 44.796875 411.261719 44.613281 C 388.257812 41.511719 399.925781 42.539062 380.636719 46.527344 C 378.722656 47 379.523438 45.710938 370.464844 56.949219 C 370.226562 63.332031 370.832031 68.625 370.011719 70.632812 C 366.574219 79.050781 368.117188 79.109375 364.867188 81.933594 C 362.847656 83.597656 361.050781 85.574219 358.722656 86.820312 C 359.433594 82.699219 365.429688 74.160156 362.804688 66.1875 C 357.960938 56.058594 361.460938 58.332031 349.179688 51.0625 C 338.515625 44.511719 340.878906 47.496094 325.121094 45.570312 C 321.730469 44.914062 319.246094 47.691406 299.21875 56.929688 C 297.445312 55.480469 295.675781 53.972656 293.722656 52.78125 C 267.996094 48.292969 255.046875 58.179688 242.972656 66.09375 C 237.679688 69.925781 227.054688 72.628906 215.886719 77.738281 C 214.835938 78.007812 194.140625 81.113281 191.8125 80.710938 C 181.664062 77.804688 180.453125 78.058594 175.558594 76.550781 C 227.625 75.304688 223.089844 68.179688 243.433594 58.34375 C 250.507812 54.492188 262.011719 47.851562 264.507812 47.445312 C 284.679688 43.761719 270.492188 40.710938 297.179688 44.132812 C 299.878906 44.5 302.667969 45.753906 305.332031 44.496094 C 309.320312 43.125 313.417969 41.921875 317.148438 39.90625 C 324.683594 37.6875 350.6875 41.203125 358.492188 43.296875 C 369.550781 46.175781 367.390625 23.003906 418.867188 45.226562 Z M 418.867188 45.226562 " fill-opacity="1" fill-rule="nonzero"/><path fill="#87adcf" d="M 289.480469 69.222656 C 282.480469 102.570312 285.640625 101.863281 287.988281 112.230469 C 279.054688 104.777344 280.632812 104.765625 279.402344 92.820312 C 279.335938 92.40625 278.378906 79.410156 289.480469 69.222656 Z M 289.480469 69.222656 " fill-opacity="1" fill-rule="nonzero"/><path fill="#87adcf" d="M 521.238281 131.613281 C 513.550781 136.511719 503.574219 141.578125 492.902344 150.195312 C 497.441406 153.015625 502.4375 154.992188 507.0625 157.65625 C 481.632812 154.234375 491.257812 153.773438 472.160156 157.484375 C 463.636719 159.367188 469.714844 154.957031 446.902344 172.941406 C 446.738281 173.207031 435.863281 189.6875 435.484375 190.117188 C 436.75 181.148438 435.769531 183.394531 438.875 176.847656 C 443.761719 167.21875 442.011719 170.6875 448.304688 164.996094 C 460.050781 155.238281 459.929688 155.800781 460.621094 154.527344 C 501.433594 147.777344 484.472656 139.820312 521.238281 131.613281 Z M 521.238281 131.613281 " fill-opacity="1" fill-rule="nonzero"/><path fill="#87adcf" d="M 529.273438 227.757812 C 531.015625 231.683594 532.640625 245.507812 534.960938 246.945312 C 534.960938 246.945312 545.785156 254.429688 545.785156 254.429688 C 546.714844 255.386719 554.585938 255.972656 562.117188 257.511719 C 564.324219 258.085938 567.777344 256.144531 568.824219 255.777344 C 577.285156 252.363281 572.210938 255.65625 577.042969 250.039062 C 578.835938 247.714844 580.882812 245.558594 582.292969 242.960938 C 582.484375 242.480469 582.953125 242.242188 583.371094 241.976562 C 583.300781 242.117188 580.554688 248.914062 577.589844 255.050781 C 574.484375 258.058594 568.78125 262.140625 567.863281 263.800781 C 567.863281 263.800781 553.417969 262.339844 553.417969 262.339844 C 553.152344 262.140625 537.75 255.402344 536.082031 255.167969 C 531.644531 244.585938 528.070312 251.484375 529.273438 227.757812 Z M 529.273438 227.757812 " fill-opacity="1" fill-rule="nonzero"/><path fill="#87adcf" d="M 474.269531 256.46875 C 477.503906 257.792969 492.808594 261.863281 496.972656 262.898438 C 497.242188 263.023438 533.292969 280.5 536.617188 282.421875 C 536.351562 282.351562 486.601562 264.015625 482.160156 263.542969 C 482.160156 263.542969 461.101562 262.628906 451.1875 262.40625 C 450.5 262.375 428.972656 264.929688 427.933594 265.007812 C 429.699219 262.816406 432.34375 261.488281 433.855469 259.058594 C 439.492188 259.085938 448.066406 254.953125 474.269531 256.46875 Z M 474.269531 256.46875 " fill-opacity="1" fill-rule="nonzero"/><path fill="#87adcf" d="M 337.234375 324.558594 C 337.234375 324.558594 357.640625 339.871094 357.640625 339.871094 C 386.007812 351.5625 378.632812 347.671875 389.726562 349.222656 C 397.0625 350.421875 399.65625 350.507812 413.09375 346.117188 C 415.601562 346.03125 410.832031 338.945312 409.632812 332.511719 C 412.320312 334.175781 411.933594 334.53125 425.597656 345.492188 C 428.871094 346.800781 440.023438 347.660156 447.664062 349.527344 C 453.105469 350.535156 454.898438 349 475.019531 348.160156 C 530.25 332.660156 507.457031 337.296875 532.019531 328.78125 C 531.75 329.046875 512.457031 344.699219 510.367188 345.816406 C 510.101562 345.972656 498.457031 352.730469 497.804688 353.410156 C 496.332031 356.890625 492.308594 364.425781 492.308594 364.425781 C 491.996094 361.039062 490.800781 353.535156 490.761719 353.269531 C 490.496094 353.292969 458.300781 359.390625 438.902344 354.953125 C 438.636719 354.890625 419.164062 350.492188 416.90625 350.335938 C 412.097656 352.519531 405.601562 356.230469 404.539062 356.128906 C 382.605469 356.183594 383.570312 356.203125 382.429688 355.785156 C 379.929688 354.984375 363.515625 351.269531 353.351562 346.011719 C 328 359.847656 311.492188 357.621094 297.332031 357.609375 C 292.679688 356.640625 288.253906 354.777344 283.773438 353.226562 C 280.210938 350.785156 276.636719 348.320312 273.269531 345.609375 C 297.066406 352.238281 298.882812 356.375 330.277344 349.449219 C 332.183594 348.925781 334.21875 348.703125 335.925781 347.632812 C 340.015625 344.914062 344.597656 343.019531 348.5 339.996094 C 344.894531 334.742188 340.839844 329.808594 337.234375 324.558594 Z M 337.234375 324.558594 " fill-opacity="1" fill-rule="nonzero"/><path fill="#87adcf" d="M 281.386719 363.984375 C 267.371094 373.851562 265.59375 373.125 266.035156 374.289062 C 268 375.710938 276.738281 380.144531 278.121094 380.921875 C 285.925781 382.695312 289.734375 386.476562 309.289062 386.695312 C 350.675781 386.5625 360.320312 379.378906 388.617188 371.210938 C 390.273438 370.871094 391.691406 369.691406 393.457031 369.90625 C 382.285156 375.292969 354.546875 387.242188 333.488281 392.617188 C 312.996094 394.300781 283.414062 395.957031 265.214844 386.363281 C 258.253906 382.875 253.617188 376.648438 251.449219 377.058594 C 241.035156 378.972656 228.984375 379.464844 207.414062 395.023438 C 201.382812 398.742188 205.308594 396.472656 194.308594 398.589844 C 191.117188 397.960938 188.105469 396.683594 185.125 395.425781 C 204.824219 394.203125 193.835938 397.335938 203.710938 392.058594 C 213.777344 386.257812 209.664062 386.707031 223.980469 377.226562 C 224.25 377.066406 234 371.167969 235.195312 370.898438 C 262.726562 364.816406 251.175781 365.804688 269.226562 364.566406 C 269.835938 364.433594 277.609375 363.789062 281.386719 363.984375 Z M 281.386719 363.984375 " fill-opacity="1" fill-rule="nonzero"/></g></g></g></svg>