<svg xmlns="http://www.w3.org/2000/svg" xmlns:xlink="http://www.w3.org/1999/xlink" width="1200" zoomAndPan="magnify" viewBox="0 0 900 449.999984" height="600" preserveAspectRatio="xMidYMid meet" version="1.0"><defs><filter x="0%" y="0%" width="100%" height="100%" id="a604d0f9fd"><feColorMatrix values="0 0 0 0 1 0 0 0 0 1 0 0 0 0 1 0 0 0 1 0" color-interpolation-filters="sRGB"/></filter><mask id="bcf709fe1e"><g filter="url(#a604d0f9fd)"><rect x="-90" width="1080" fill="#000000" y="-44.999998" height="539.99998" fill-opacity="0.25"/></g></mask><clipPath id="0c3183cdd6"><path d="M 0.441406 1 L 428.757812 1 L 428.757812 282.191406 L 0.441406 282.191406 Z M 0.441406 1 " clip-rule="nonzero"/></clipPath><clipPath id="45218c74f7"><rect x="0" width="429" y="0" height="283"/></clipPath></defs><g mask="url(#bcf709fe1e)"><g transform="matrix(1, 0, 0, 1, 241, 84)"><g clip-path="url(#45218c74f7)"><g clip-path="url(#0c3183cdd6)"><path fill="#87adcf" d="M 182.101562 2.265625 C 192.890625 -0.554688 206.859375 3.40625 212.941406 4.492188 C 221.597656 7.035156 242.625 5.59375 245.75 6.09375 C 244.496094 6.082031 228.398438 5.886719 227.003906 6.429688 C 229.484375 7.316406 230.859375 6.949219 233.289062 7.015625 C 255.902344 6.808594 239.523438 6.191406 287.816406 16.316406 C 289.886719 16.765625 292.027344 16.921875 294.042969 17.589844 C 294.046875 17.59375 308.910156 28.128906 308.910156 28.128906 C 315.257812 30.230469 333.046875 35.144531 333.355469 35.183594 C 333.894531 36.097656 333.277344 35.378906 340.019531 42.125 C 340.941406 43.066406 341.285156 44.667969 342.675781 45.078125 C 356.316406 50.878906 347.0625 45.382812 363.785156 56.652344 C 363.933594 56.753906 370.71875 61.230469 370.902344 61.269531 C 370.953125 61.4375 380.074219 72.6875 382.394531 75.394531 C 382.449219 75.5625 387.363281 87.746094 388.316406 88.980469 C 397.503906 95.546875 396.4375 91.15625 406.375 104.78125 C 409.652344 118.761719 407.835938 115.933594 413.132812 124.546875 C 413.792969 125.441406 414.011719 126.554688 414.300781 127.605469 C 419.027344 142.351562 417.769531 138.242188 417.972656 141.527344 C 428.1875 156.449219 427.914062 187.929688 428.726562 190.019531 C 429.003906 193.011719 425.71875 214.894531 425.675781 215.0625 C 421.433594 229.515625 420.828125 228.191406 423.285156 239.167969 C 423.550781 239.964844 421.996094 246.410156 421.644531 248.601562 C 418.554688 256.078125 413.578125 261.527344 402.75 276.25 C 402.75 276.25 392.738281 280.8125 392.738281 280.8125 C 392.734375 280.8125 379.628906 282.542969 379.628906 282.542969 C 378.816406 282.039062 374.460938 280.246094 372.726562 279.09375 C 369.164062 278.398438 365.585938 277.804688 362.015625 277.160156 C 354.910156 276.523438 347.523438 270.394531 343.621094 269.945312 C 337.117188 268.964844 330.597656 268.300781 324.085938 267.429688 C 323.574219 267.195312 313.386719 261.925781 313.363281 261.910156 C 311.15625 258.585938 308.914062 255.285156 306.742188 251.941406 C 304.367188 252.894531 299.238281 251.460938 297.542969 251.46875 C 296.296875 250.570312 295.078125 249.628906 293.8125 248.753906 C 274.769531 257.21875 264.46875 254.964844 259.695312 255.832031 C 248.515625 261.382812 254.652344 260.351562 236.363281 260.203125 C 235.535156 259.933594 234.667969 260.011719 233.8125 259.9375 C 233.015625 259.640625 229.484375 259.523438 228.628906 259.523438 C 227.648438 260.027344 222.496094 263.789062 222.382812 263.898438 C 222.003906 264.039062 215.503906 265.40625 215.152344 265.46875 C 213.359375 265.210938 205.070312 265.660156 197.710938 262.175781 C 197.242188 261.914062 196.820312 262.410156 196.40625 262.578125 C 194.746094 263.738281 192.695312 264.246094 191.128906 265.539062 C 191.101562 265.546875 183.148438 268.335938 182.972656 268.425781 C 179.941406 268.476562 176.90625 268.40625 173.875 268.453125 C 170.714844 270.164062 155.746094 273.828125 142.410156 270.976562 C 121.65625 265.597656 129.539062 266.597656 118.015625 262.007812 C 117.441406 261.582031 110.0625 254.859375 109.878906 254.640625 C 106.007812 250.230469 110.507812 257.785156 101.367188 242.597656 C 100.027344 242.597656 98.6875 242.597656 97.347656 242.597656 C 97.347656 242.597656 92.863281 237.8125 92.863281 237.8125 C 92.210938 235.894531 91.824219 233.894531 91.171875 231.976562 C 91.101562 228.859375 91.164062 225.742188 91.140625 222.625 C 90.382812 222.605469 84.496094 222.21875 83.878906 221.898438 C 43.242188 203.058594 40.058594 211.117188 20.1875 201.480469 C 17.777344 200.136719 16.523438 200.453125 15.085938 198.652344 C 9.613281 190.703125 11.046875 198.238281 7.980469 185.011719 C 7.898438 175.773438 8.101562 175.714844 7.820312 175.324219 C 4.277344 169.707031 4.453125 168.652344 2.648438 166.128906 C 2.214844 164.53125 -0.234375 153.992188 1.335938 149.726562 C 1.425781 146.125 1.757812 146.457031 10.476562 129.492188 C 10.84375 128.367188 10.128906 127.3125 9.890625 126.242188 C 8.148438 116.882812 8.714844 117.476562 10.640625 109.492188 C 10.640625 109.492188 16.625 99.9375 16.625 99.9375 C 17.40625 99.457031 24.804688 92.449219 24.972656 92.3125 C 25.875 91.949219 26.796875 91.636719 27.707031 91.289062 C 27.765625 85.691406 27.199219 87.433594 29.417969 78.214844 C 33.46875 73.894531 30.886719 73.890625 51.003906 60.308594 C 51.824219 58.988281 54.234375 57.472656 55.5 56.109375 C 55.667969 56.003906 65.507812 47.25 67.804688 46.484375 C 70.707031 46.046875 81.25 42.6875 82.9375 42.425781 C 83.890625 42.359375 84.871094 42.542969 85.796875 42.226562 C 87.269531 42.226562 88.675781 41.695312 90.144531 41.695312 C 91.761719 39.597656 93.78125 37.875 96.429688 34.527344 C 110.109375 26.921875 100.238281 29.378906 115.441406 26.773438 C 116.800781 26.441406 118.253906 26.230469 119.625 26.628906 C 119.625 26.628906 123.980469 26.953125 123.980469 26.953125 C 125.441406 27.414062 126.964844 26.980469 128.445312 26.90625 C 129.316406 25.253906 133.226562 22.507812 134.925781 20.871094 C 150.242188 13.324219 147.257812 14.558594 166.054688 14.707031 C 166.710938 14.988281 167.371094 15.269531 168.070312 15.464844 C 168.617188 14.195312 175.808594 3.996094 176.589844 3.800781 C 178.417969 3.269531 180.3125 2.953125 182.101562 2.265625 M 187.683594 4.558594 C 186.433594 4.839844 185.183594 5.121094 183.957031 5.480469 C 183.191406 5.429688 182.449219 5.644531 181.777344 5.984375 C 180.058594 6.324219 173.398438 16.003906 173.246094 16.882812 C 173.070312 16.613281 172.414062 16.554688 172.347656 16.917969 C 172.5 17.15625 172.945312 17.378906 173.1875 17.167969 C 174.367188 17.6875 175.621094 18.027344 176.800781 18.558594 C 177.5625 18.847656 178.429688 19.347656 179.242188 18.910156 C 179.242188 18.910156 189.957031 15.007812 192.230469 14.042969 C 192.398438 13.964844 203.820312 11.789062 217.359375 14.609375 C 219.96875 14.78125 228.054688 14.464844 231.46875 14.808594 C 230.984375 15.003906 230.492188 15.160156 230.007812 15.332031 C 229.167969 15.328125 228.347656 15.511719 227.542969 15.722656 C 212.351562 19.933594 212.175781 18.132812 205.425781 17.984375 C 204.011719 17.25 202.375 17.867188 200.871094 17.910156 C 192.078125 17.808594 190.617188 18.273438 179.480469 24.046875 C 179.472656 24.046875 165.496094 18.941406 165.238281 18.882812 C 164.140625 18.359375 149.992188 18.484375 149.332031 18.90625 C 147.433594 19.386719 145.765625 20.445312 144.003906 21.265625 C 140.316406 22.96875 141.074219 21.28125 137.601562 24.96875 C 137.601562 24.96875 132.199219 30.148438 132.199219 30.148438 C 132.199219 30.148438 116.871094 30.933594 113.339844 31.265625 C 102.625 37.894531 105.710938 35.488281 99.308594 41.183594 C 97.964844 42.738281 95.9375 43.65625 94.984375 45.546875 C 90.414062 54.488281 91.855469 51.980469 89.265625 52.945312 C 88.601562 52.894531 87.890625 52.828125 87.292969 53.1875 C 87.121094 53.191406 79.769531 54.183594 79.511719 54.285156 C 67.132812 62.667969 59.148438 67.375 53.992188 79.003906 C 54.492188 79.285156 54.996094 79.5625 55.5 79.84375 C 43.523438 98.402344 30.804688 96.753906 29.070312 109.996094 C 28.648438 110.707031 28.625 111.5625 29.078125 112.269531 C 29.3125 113.371094 29.617188 114.464844 30 115.527344 C 30 115.527344 41.296875 116.992188 41.296875 116.992188 C 41.738281 114.019531 41.96875 114.652344 42.070312 113.125 C 42.363281 112.277344 42.464844 111.332031 43.035156 110.609375 C 43.898438 109.597656 48.289062 102.289062 49.085938 101.386719 C 49.136719 101.324219 56.570312 95.378906 56.800781 95.246094 C 57.785156 94.8125 58.878906 94.71875 59.902344 94.398438 C 60.453125 94.40625 61.003906 94.402344 61.554688 94.394531 C 62.160156 92.21875 61.710938 87.128906 63.21875 84 C 64.523438 82.78125 65.917969 80.191406 69.050781 76.242188 C 73 73.152344 78.027344 68.105469 80.664062 66.484375 C 80.832031 66.402344 94.386719 59.984375 95.90625 59.472656 C 85.167969 68.292969 69.984375 74.558594 67.441406 88.148438 L 67.457031 87.957031 C 67.269531 89.363281 67.386719 90.792969 67.105469 92.191406 L 67.332031 92.203125 C 68.335938 92.722656 67.941406 92.335938 77.667969 93.84375 L 77.480469 93.839844 C 78.726562 93.964844 79.976562 94.070312 81.226562 94.070312 C 83.800781 90.859375 85.589844 89.335938 85.828125 79.738281 C 86.4375 82.4375 86.328125 83.230469 86.890625 84.789062 C 87.101562 89.214844 88.226562 83.316406 86.71875 96.144531 C 98.761719 104.605469 82.234375 97.683594 111.355469 97.917969 C 111.355469 97.917969 115.375 98.625 124.238281 99.636719 C 128.5 90.941406 127.304688 91.125 128.679688 87.902344 C 128.710938 88.0625 128.683594 96.292969 128.683594 96.453125 C 128.664062 99.785156 133.578125 108.957031 134.101562 111.019531 C 134.285156 112.460938 134.292969 113.957031 134.816406 115.332031 C 135.640625 128.449219 143.554688 137.316406 144.3125 138.476562 C 130.316406 130.617188 134.175781 109.191406 123.765625 105.1875 C 117.382812 103.027344 124.605469 103.289062 100.074219 103.332031 C 98.195312 103.28125 96.824219 104.992188 92.554688 107.511719 C 91.382812 108.136719 86.527344 121.050781 86.5 121.414062 C 84.960938 133.667969 84.746094 131.109375 85.65625 133.1875 C 86.394531 134.535156 86.625 136.148438 87.621094 137.355469 C 87.226562 137.730469 87.921875 138.429688 88.304688 138.046875 C 91.339844 141.191406 105.574219 144.78125 112.535156 153.347656 C 102.265625 150.78125 88.230469 144.152344 88.035156 143.964844 C 81.082031 137.410156 84.171875 141.949219 81.066406 136.417969 C 80.910156 135.460938 79.300781 131.230469 78.777344 130.230469 C 78.757812 129.929688 78.738281 129.632812 78.722656 129.339844 C 73.996094 129.257812 67.574219 129.308594 67.574219 129.308594 C 68.667969 128.710938 76.347656 125.925781 78.523438 125.402344 C 78.523438 125.402344 82.894531 111.78125 82.894531 111.78125 C 83.265625 111.28125 83.421875 110.679688 83.453125 110.066406 C 83.527344 109.898438 85.875 105.691406 86.464844 104.894531 C 83.691406 101.660156 83.542969 100.789062 82.621094 100.539062 C 73.816406 97.921875 73.328125 96.074219 65.523438 98.035156 C 64.539062 98.015625 61.09375 98.429688 59.859375 99.011719 C 55.753906 102.792969 50.113281 107.515625 49.816406 108.457031 C 48.40625 112.933594 45.144531 120.5 44.160156 124.335938 C 43.589844 125.277344 43.730469 136.167969 44.128906 136.96875 C 44.609375 139.730469 45.554688 142.386719 46.261719 145.097656 C 46.515625 146.414062 47.796875 147.042969 48.804688 147.722656 C 50.425781 148.726562 51.847656 150.019531 53.433594 151.070312 C 58.316406 151.660156 60.347656 150.777344 65.195312 149.34375 C 73.175781 173.578125 70.78125 165.175781 77.65625 176.203125 C 88.234375 182.796875 108.984375 186.535156 114.121094 175.113281 C 114.242188 174.148438 114.441406 172.894531 113.632812 172.171875 C 109.292969 167.777344 109.980469 166.585938 95.464844 163.347656 C 94.398438 162.996094 94.464844 163.183594 88.082031 163.121094 C 87.113281 163.085938 86.816406 163.371094 83.625 164.125 C 82.234375 164.453125 80.804688 164.554688 79.402344 164.804688 C 80.84375 164.039062 81.855469 162.648438 83.347656 161.980469 C 93.910156 159.117188 96.382812 160.832031 102.429688 160.808594 C 109.019531 160.960938 122.730469 173.359375 124.890625 173.550781 C 126.105469 174.050781 130.214844 174.289062 130.382812 174.289062 C 130.753906 174.429688 131.179688 174.472656 131.546875 174.269531 C 136.625 173.820312 135.660156 173.59375 137.144531 170.644531 C 137.546875 170 137.195312 169.242188 137.023438 168.585938 C 137.167969 166.285156 134.484375 164.695312 133.324219 163.050781 C 117.195312 144.734375 122.144531 150.757812 119.964844 146.574219 C 104.417969 115.792969 112.90625 130.40625 109.613281 122.394531 C 109.441406 122.054688 109.265625 121.804688 103.582031 119.25 C 106.003906 119.339844 108.1875 120.597656 110.574219 120.839844 C 112.351562 118.65625 113.613281 113.828125 115.410156 111.96875 C 114.5625 119.769531 113.113281 123.8125 118.121094 134.738281 C 118.261719 135.675781 118.597656 136.574219 119.085938 137.390625 C 120.042969 142.777344 122.382812 144.175781 127.566406 151.902344 C 128.050781 152.582031 138.515625 160.992188 138.664062 161.058594 C 152.636719 162.546875 143.867188 162.0625 151.234375 160.550781 C 151.824219 160.371094 152.527344 160.40625 152.980469 159.929688 C 155.714844 157.3125 155.34375 157.449219 155.328125 154.722656 C 154.742188 149.097656 156.507812 153.3125 152.769531 139.894531 C 152.589844 138.652344 154.023438 133.382812 154.421875 129.835938 C 155.4375 128.332031 162.609375 117.164062 163.351562 115.828125 C 166.570312 105.167969 169.144531 95.132812 159.511719 89.640625 C 152.332031 86.273438 155.191406 86.402344 143.832031 86.554688 C 140.597656 80.949219 134.117188 73.289062 133.949219 73.125 C 133.21875 72.933594 125.148438 71.535156 123.476562 72.632812 C 115.894531 77.851562 117.632812 74.65625 115.433594 81.742188 C 115.027344 82.96875 114.601562 84.191406 114.300781 85.445312 C 113.949219 83.414062 115.023438 77.425781 114.914062 75.765625 C 115.101562 75.21875 115.148438 74.570312 115.628906 74.179688 C 117.523438 72.542969 121.453125 69.894531 122.605469 68.445312 C 124.59375 67.9375 128.988281 69.449219 132.023438 69.496094 C 133.125 69.851562 134.308594 69.769531 135.425781 70.046875 C 136.914062 70.921875 138.109375 72.199219 139.414062 73.316406 C 147.300781 79.152344 138.996094 78.0625 165.65625 86.09375 C 167.269531 86.617188 167.21875 87.695312 169.765625 89.589844 C 173.472656 85.113281 179.164062 76.992188 189.421875 76.898438 C 188.90625 75.894531 189.628906 74.78125 189.644531 73.730469 C 190.109375 72.417969 190.371094 71.042969 190.574219 69.664062 C 190.980469 68.738281 191.285156 67.769531 191.714844 66.851562 C 199.589844 52.714844 193.757812 60.15625 199.855469 53.390625 C 202.398438 50.921875 204.789062 48.296875 207.453125 45.957031 C 197.523438 60.488281 197.761719 63.59375 194.359375 76.644531 C 195.4375 76.507812 196.527344 76.570312 197.613281 76.539062 C 196.457031 76.878906 195.308594 77.25 194.132812 77.515625 C 194.085938 77.769531 194.042969 78.027344 194 78.28125 C 193.667969 78.230469 193.335938 78.175781 193.003906 78.148438 C 193.011719 77.65625 191.867188 77.617188 191.804688 78.066406 C 191.359375 78.050781 190.921875 78.128906 190.515625 78.289062 C 189.050781 78.410156 184.230469 79.683594 182.976562 80.222656 C 176.316406 85.65625 176.277344 88.421875 171.835938 95.121094 C 171.585938 95.496094 171.664062 95.144531 171.671875 104.210938 C 171.714844 105.394531 169.15625 112.277344 168.847656 113.066406 C 166.5625 118.671875 170.777344 111.425781 161.429688 124.6875 C 160.765625 125.667969 159.789062 126.445312 159.402344 127.597656 C 158.722656 129.308594 157.566406 130.847656 157.257812 132.691406 C 157.25 132.859375 156.996094 140.722656 157.570312 141.808594 C 158.628906 148.652344 159.445312 148.949219 160.511719 150.441406 C 161.253906 151.261719 161.730469 152.339844 162.664062 152.976562 C 167.964844 153.359375 168.078125 152.804688 168.671875 152.136719 C 169.429688 151.25 170.34375 150.507812 171.027344 149.554688 C 172.417969 147.789062 174.441406 143.980469 175.238281 143.195312 C 175.40625 143.039062 181.175781 138.703125 182.222656 138.195312 C 192.492188 133.058594 190.214844 130.152344 196.246094 117.445312 C 201.230469 108.109375 201.273438 103.144531 214.398438 89.566406 C 213.601562 91.554688 212.117188 93.144531 211.203125 95.0625 C 210.152344 96.199219 203.902344 107.074219 202.839844 108.304688 C 200.003906 114.828125 196.386719 131.832031 188.507812 139.789062 C 185.578125 141.125 182.660156 142.488281 179.824219 144.015625 C 179.824219 144.015625 177.226562 148.242188 177.226562 148.242188 L 177.226562 148.03125 C 177.089844 149.589844 177.117188 151.171875 177.207031 152.734375 L 177.207031 152.527344 C 177.648438 153.046875 178.160156 153.503906 178.628906 154 C 187.464844 153.414062 175.589844 155.667969 197.488281 148.996094 C 200.246094 148.199219 209.71875 142.460938 212.421875 141.375 C 212.457031 141.34375 217.964844 135.261719 218.195312 134.921875 C 218.429688 134.589844 223.601562 125.023438 224.417969 124.300781 C 223.371094 127.722656 218.394531 141.398438 218.394531 141.398438 L 218.320312 141.183594 C 218.355469 142.824219 216.445312 142.085938 228.082031 143.699219 C 228.277344 143.589844 228.464844 143.460938 228.648438 143.324219 C 231.449219 139.742188 236.851562 137.4375 238.621094 133.265625 C 245.316406 122.660156 250.046875 108.207031 252.136719 95.976562 C 252.292969 95.515625 257.117188 89.8125 258.21875 88.714844 C 262.082031 86.660156 282.191406 75.855469 285.027344 72.535156 C 290.449219 63.722656 288.453125 57.886719 289.4375 55.144531 C 289.394531 55.0625 289.308594 54.898438 289.265625 54.816406 C 288.765625 51.625 288.863281 48.820312 288.453125 47.523438 C 288.484375 47.332031 288.535156 46.941406 288.566406 46.746094 C 289.210938 48.210938 292 63.074219 292.042969 63.246094 C 292.402344 63.144531 308.902344 61.511719 312.292969 62.328125 C 312.292969 62.328125 326.371094 63.527344 326.371094 63.527344 C 326.367188 64.003906 327.265625 63.902344 327.601562 63.769531 C 327.992188 63.996094 337.738281 66.429688 337.90625 66.457031 L 337.882812 66.640625 C 337.988281 66.632812 338.203125 66.617188 338.3125 66.609375 C 338.402344 55 335.03125 51.605469 334.621094 47.691406 C 334.660156 47.738281 339.210938 54.824219 341.316406 57.761719 C 341.464844 60.125 342.898438 65.9375 343.203125 66.660156 C 348.199219 71.671875 352.582031 75.109375 353.167969 76.136719 C 353.019531 76.375 353.25 76.691406 353.421875 76.867188 C 353.671875 76.875 353.824219 76.460938 353.734375 76.257812 L 353.90625 76.304688 C 354.582031 74.757812 355.78125 73.390625 356.140625 71.738281 C 356.652344 71.679688 356.460938 70.6875 356.386719 70.289062 C 356.765625 69.203125 356.894531 68 357.085938 66.855469 L 357.351562 66.855469 C 357.332031 64.972656 357.386719 63.089844 357.328125 61.210938 L 357.378906 61.046875 C 357.453125 61.371094 360.457031 69.140625 360.804688 69.964844 C 360.972656 70.050781 367.480469 72.109375 368.1875 71.980469 C 368.132812 72.421875 368.933594 72.433594 369.1875 72.210938 C 369.1875 72.210938 370.367188 72.546875 375.375 75.164062 C 375.886719 75.410156 376.386719 75.785156 376.996094 75.726562 C 366.714844 61.578125 365.371094 60.851562 343.824219 48.167969 C 337.828125 47.132812 341.023438 45.203125 322.207031 44.519531 C 322.5625 44.367188 322.9375 44.246094 323.300781 44.109375 C 324.371094 44.050781 331.492188 43.320312 334.175781 42.578125 C 334.578125 42.703125 335.578125 42.898438 335.695312 42.394531 C 337.53125 42.902344 338.222656 43.65625 340.570312 44.292969 C 340.570312 44.292969 336.9375 41.296875 334.820312 39.332031 C 332.777344 37.914062 332.191406 35.855469 327.046875 35.832031 L 327.035156 35.636719 C 325.625 35.585938 324.257812 35.164062 322.855469 35.066406 C 322.386719 34.824219 321.847656 34.882812 321.351562 34.921875 C 321.328125 34.464844 320.449219 34.558594 320.136719 34.699219 C 320.058594 34.632812 319.898438 34.5 319.824219 34.433594 C 319.402344 34.4375 318.988281 34.445312 318.578125 34.4375 L 318.578125 34.226562 C 315.273438 34.011719 312.058594 32.808594 308.726562 33.035156 C 307.089844 33.4375 297.675781 35.058594 295.550781 35.152344 L 295.539062 35.375 C 295.054688 35.386719 294.542969 35.324219 294.097656 35.542969 C 292.3125 35.652344 287.128906 36.570312 287.089844 36.570312 L 287.089844 36.804688 C 286.921875 36.808594 273.808594 42.121094 261.914062 50.597656 C 261.75 50.746094 257.902344 59.335938 257.292969 61.019531 C 256.929688 62.207031 255.484375 62.511719 254.960938 63.566406 C 253.964844 64.074219 249.292969 67.78125 248.5625 68.796875 C 246.714844 69.808594 236.503906 76.410156 236.503906 76.410156 C 236.335938 76.488281 223.316406 83.304688 222.753906 83.792969 C 222.246094 83.925781 221.75 84.085938 221.246094 84.21875 C 223.054688 82.632812 237.503906 71.992188 239.558594 70.539062 C 246.65625 65.050781 239.773438 71.429688 254.503906 56.8125 C 254.902344 56.417969 255.285156 55.984375 255.457031 55.433594 C 258.542969 47.191406 258.730469 51.789062 259.75 40.472656 C 260.246094 42.5 260.515625 44.578125 260.882812 46.628906 C 263.105469 45.496094 270.125 39.667969 275.867188 35.238281 C 276.910156 35.074219 281 33.855469 281.214844 33.773438 C 281.890625 33.71875 282.5625 33.570312 283.171875 33.265625 C 283.785156 33.175781 284.398438 33.0625 284.980469 32.832031 C 285.648438 32.773438 286.316406 32.625 286.933594 32.335938 C 287.46875 32.257812 288 32.121094 288.5 31.90625 C 289.171875 31.84375 289.839844 31.6875 290.453125 31.394531 C 293.441406 30.839844 296.351562 29.910156 299.265625 29.050781 C 299.953125 29.488281 299.566406 28.132812 299.117188 28.710938 C 298.800781 27.996094 298.160156 27.5 297.601562 26.976562 C 281.582031 13.945312 303.46875 26.292969 251.949219 12.957031 C 249.257812 12.445312 246.652344 11.542969 243.933594 11.144531 C 243.125 10.777344 239.128906 9.8125 237.761719 9.6875 C 237.226562 9.472656 226.082031 10.035156 225.265625 10.144531 C 210.238281 12.050781 211.300781 8.238281 203.457031 6.457031 C 202.078125 5.71875 190.46875 4.539062 190.300781 4.523438 C 189.460938 4.15625 188.539062 4.394531 187.683594 4.558594 M 170.847656 16.359375 C 170.898438 17.113281 171.578125 16 170.847656 16.359375 M 171.488281 16.59375 C 171.523438 17.367188 172.1875 16.234375 171.488281 16.59375 M 340.714844 44.34375 C 340.855469 44.492188 340.855469 44.492188 340.714844 44.34375 M 75.09375 49.628906 C 70.820312 51.675781 66.664062 53.988281 62.304688 55.859375 C 61.933594 56.007812 39.597656 75.535156 39.429688 75.703125 C 38.941406 75.917969 38.550781 76.289062 38.234375 76.707031 C 34.601562 79.136719 35.054688 79.132812 34.011719 81.386719 C 32.609375 85 31.691406 83.992188 32.277344 89.660156 C 49.773438 84.191406 46.882812 85.882812 50.316406 78.660156 C 53.472656 70.851562 62.296875 60.40625 62.464844 60.261719 C 72.757812 53.285156 75.167969 52.765625 82.96875 49.085938 C 76.675781 48.769531 76.167969 49.1875 75.09375 49.628906 M 309.601562 65.148438 C 307.046875 65.386719 304.515625 65.816406 301.953125 65.972656 C 301.054688 66.273438 300.035156 65.925781 299.199219 66.371094 C 295.101562 66.363281 295.414062 66.617188 289.554688 73.773438 C 277.980469 82.175781 286.558594 77.6875 271.726562 84.136719 C 267.117188 85.910156 270.839844 84.1875 261.800781 91.128906 C 257.734375 95.027344 260.53125 90.71875 255.214844 100.992188 C 254.671875 101.976562 254.453125 103.097656 253.902344 104.074219 L 253.945312 103.867188 C 251.667969 109.621094 251.550781 121.257812 239.839844 143.453125 C 240.878906 143.550781 252.242188 141.621094 257.253906 138.746094 C 257.59375 138.570312 266.769531 133.996094 267.058594 133.753906 C 268.375 132.699219 272.105469 130.15625 272.589844 129.933594 C 272.363281 130.523438 265.8125 137.585938 265.355469 138.164062 C 264.230469 138.972656 259.21875 140.753906 257.90625 141.855469 C 257.621094 141.644531 257.277344 142.015625 257.128906 142.234375 C 256.925781 142.574219 257.507812 142.652344 257.671875 142.445312 L 257.601562 142.605469 C 263.21875 143.898438 262.09375 144.828125 265.550781 144.558594 C 265.613281 145.007812 266.503906 144.992188 266.816406 144.746094 C 268.875 145.554688 298.617188 148.964844 305.445312 146.558594 C 307.835938 146.261719 315.371094 144.167969 316.113281 144.046875 C 318.289062 142.734375 320.171875 140.988281 322.382812 139.730469 C 323.265625 138.929688 325.164062 135.875 326.070312 135.308594 C 325.996094 135.796875 325.875 136.277344 325.835938 136.773438 C 325.5625 137.476562 325.460938 138.230469 325.335938 138.964844 C 325.089844 139.457031 324.898438 139.988281 324.878906 140.542969 C 324.578125 141.136719 324.398438 141.78125 324.425781 142.449219 C 324.089844 142.652344 314.671875 151.429688 309.324219 154.132812 C 336.59375 165.070312 342.335938 174.394531 348.519531 180.777344 C 348.242188 180.695312 347.972656 180.617188 347.707031 180.542969 C 347.5625 180.160156 333.066406 168.101562 332.3125 168.121094 C 312.421875 156.921875 288.425781 151.121094 285.109375 149.664062 C 282.554688 149.355469 270.28125 146.652344 267.15625 146.222656 C 266.851562 146.160156 243.578125 145.105469 243.371094 145.207031 C 243.046875 144.925781 242.828125 144.980469 242.703125 145.363281 C 241.378906 145.214844 237.214844 145.890625 237.019531 145.964844 C 236.359375 145.976562 231.757812 146.488281 231.300781 146.714844 C 230.53125 146.707031 218.84375 147.992188 218.609375 148.148438 C 213.253906 148.296875 188.621094 154.078125 181.261719 155.800781 C 136.65625 170.304688 131.566406 177.839844 111.988281 192.957031 C 107.523438 196.0625 108.488281 195.136719 99.023438 210.304688 C 97.867188 211.972656 96.078125 220.082031 95.933594 220.832031 C 95.527344 223.847656 96.511719 226.800781 96.644531 229.796875 C 96.652344 229.8125 99.542969 234.398438 99.554688 234.410156 C 104.808594 238.003906 104.675781 236.171875 111 236.804688 C 109.855469 237.664062 107.371094 241.855469 105.898438 242.820312 C 106.535156 243.683594 106.886719 244.738281 107.585938 245.554688 C 111.125 252.726562 120.574219 259.273438 127.65625 262.9375 C 157.921875 270.539062 152.234375 269.792969 165.210938 266.460938 C 153.753906 257.160156 152.796875 256.941406 151.699219 255.488281 C 158.910156 259.332031 158.78125 261.890625 175.90625 263.585938 C 177.226562 263.929688 188.113281 261.585938 188.28125 261.492188 C 201.980469 256.941406 197.785156 258.644531 200.894531 259.25 C 203.144531 260.1875 205.605469 260.519531 208.03125 260.4375 C 208.738281 260.925781 209.65625 260.628906 210.457031 260.742188 C 211.078125 261.015625 211.792969 261.011719 212.414062 260.746094 C 213.0625 260.683594 213.777344 260.832031 214.363281 260.464844 C 220.089844 260.679688 220.039062 259.636719 230.546875 252.773438 C 233.121094 253.519531 237.097656 255.226562 237.878906 255.277344 C 238.398438 255.640625 248.851562 256.289062 249.222656 256.285156 C 251.675781 255.390625 253.066406 255.339844 262.886719 251.519531 C 263.851562 251.082031 267.183594 251.191406 268.09375 250.875 C 277.417969 250.414062 275.914062 250.386719 284.933594 247.710938 C 294.898438 244.570312 288.746094 248.921875 300.140625 235.84375 C 300.15625 235.972656 300.1875 236.230469 300.207031 236.359375 C 300.15625 236.472656 299.535156 240.953125 299.320312 245.84375 C 300.714844 245.832031 302.054688 246.269531 303.433594 246.402344 C 306.296875 247.191406 308.375 246.046875 312.183594 245.828125 C 323.140625 241.917969 325.230469 239.4375 327.914062 236.425781 C 333.675781 229.777344 329.5625 237.738281 339.417969 222.078125 C 353.148438 200.273438 347.675781 206.789062 352.699219 195.921875 C 352.523438 195.90625 336.351562 193.734375 334.589844 193.453125 C 333.617188 193.222656 295.984375 190.402344 292.617188 192.800781 C 288.027344 192.792969 272.722656 195.65625 269.660156 195.929688 C 268.84375 195.855469 268.0625 195.550781 267.234375 195.597656 C 266.648438 195.21875 265.921875 195.371094 265.269531 195.3125 C 256.253906 193.339844 263.007812 196.230469 250.4375 189.964844 C 249.789062 189.515625 225.988281 191.964844 225.417969 192.316406 C 224.894531 192.316406 224.351562 192.292969 223.859375 192.488281 C 222.898438 192.628906 221.820312 192.269531 220.953125 192.796875 C 218.4375 192.609375 203.527344 193.917969 196.066406 196.265625 C 172.265625 196.492188 153.535156 201.230469 134.375 210.40625 C 126.796875 214.675781 135.742188 207.164062 121.546875 222.726562 C 120.699219 226.105469 119.882812 229.496094 118.933594 232.851562 C 118.757812 229.566406 118.914062 226.277344 118.816406 222.988281 C 118.171875 223.957031 113.3125 230.550781 112.230469 230.953125 C 113.660156 229.09375 118.484375 221.523438 118.730469 221.027344 C 114.53125 220.660156 118.246094 222.128906 109.652344 217.515625 C 109.285156 216.289062 109 214.957031 109.007812 213.652344 C 111.414062 214.253906 113.839844 214.808594 116.242188 215.40625 C 117.804688 215.285156 119.394531 215.058594 120.890625 214.628906 C 121.277344 214.75 122.296875 214.890625 122.320312 214.359375 C 123.066406 214.226562 123.578125 213.546875 124.203125 213.15625 C 139.117188 202.542969 125.285156 210.121094 151.960938 199.339844 C 153.105469 199.09375 175.167969 193.292969 178.371094 192.226562 C 176.367188 188.253906 175.847656 188.222656 174.128906 179.183594 C 174.648438 177.578125 177.277344 172.46875 177.757812 171.761719 C 178.015625 174.828125 177.773438 177.917969 177.894531 180.992188 C 178.660156 182.542969 178.796875 184.320312 179.601562 185.859375 C 179.671875 185.921875 185.699219 189.949219 186.464844 190.269531 C 187.988281 190.808594 195.761719 191.429688 196.46875 191.207031 C 201.019531 190.171875 205.578125 189.152344 210.082031 187.914062 C 211.933594 187.5625 228.269531 189.472656 230.8125 187.605469 C 232.300781 187.644531 247.910156 186.050781 248.984375 185.914062 C 249.597656 184.578125 251.648438 176.550781 251.691406 176.378906 C 254.21875 175.515625 256.597656 174.246094 259.152344 173.449219 C 257.898438 175.683594 256.199219 177.625 254.753906 179.730469 C 254.582031 181.8125 254.289062 183.902344 253.730469 185.921875 C 262.535156 193.472656 266.0625 191.816406 281.925781 189.960938 C 314.898438 186.523438 333.804688 189.492188 335.378906 189.484375 C 335.570312 189.613281 347.160156 190.988281 349.101562 190.859375 L 349.097656 191.160156 C 349.875 191.160156 350.660156 191.152344 351.441406 191.195312 C 351.804688 191.347656 352.207031 191.34375 352.601562 191.382812 C 352.539062 191.214844 350.914062 186.578125 350.789062 185.871094 C 352.582031 187.375 353.515625 187.921875 355.480469 189.550781 C 361.472656 183.617188 376.546875 179.285156 379.53125 176.917969 C 379.53125 176.917969 385.613281 163.285156 385.796875 162.9375 C 386.714844 162.917969 387.632812 162.914062 388.550781 162.929688 C 388.550781 162.9375 384.160156 177.980469 384.03125 178.320312 C 381.363281 179.835938 378.453125 180.851562 375.75 182.292969 C 359.402344 190.292969 363.203125 188.214844 361.378906 190.945312 C 349.464844 209.871094 353.15625 203.230469 348.785156 219.472656 C 348.234375 222.046875 348.332031 220.082031 349.710938 224.621094 C 350.328125 225.726562 348.578125 225.480469 360.121094 225.464844 C 360.222656 225.578125 376.554688 240.09375 376.972656 240.351562 C 389.582031 242.535156 383.847656 243.097656 388.230469 241.070312 C 390.953125 239.746094 404.363281 224.3125 404.117188 204.855469 C 405.515625 201.828125 402.480469 194.683594 401.882812 192.523438 C 397.746094 194.828125 393.765625 197.417969 389.464844 199.410156 C 402.78125 188.441406 397.671875 194.671875 403.4375 186.464844 C 404.050781 185.214844 403.882812 183.804688 403.894531 182.460938 C 404.023438 182.027344 404.132812 181.582031 404.152344 181.128906 C 404.507812 180.113281 404.339844 179.027344 404.339844 177.980469 L 404.027344 177.996094 C 402.726562 170.035156 403.261719 178.355469 401.964844 165.070312 C 401.847656 163.367188 402.34375 161.691406 402.21875 159.988281 C 402.660156 159.152344 402.445312 158.1875 402.457031 157.289062 C 402.875 155.59375 402.9375 156.0625 401.050781 154.148438 C 400.484375 153.175781 398.707031 151.640625 397.914062 151.679688 C 398.210938 151.078125 396.847656 151.050781 397.152344 151.65625 L 396.980469 151.640625 C 396.363281 152.570312 395.6875 153.46875 394.878906 154.238281 C 390.351562 154.261719 385.824219 154.242188 381.296875 154.25 L 381.339844 154.503906 L 381.136719 154.503906 C 379.929688 157.632812 375.753906 165.425781 375.25 166.507812 C 375.082031 166.636719 363.851562 173.574219 363.378906 173.789062 C 363.613281 173.347656 370.964844 165.378906 371.132812 165.21875 C 371.777344 164.144531 373.03125 163.507812 373.382812 162.257812 C 374.382812 159.613281 376.921875 154.542969 376.816406 153.503906 C 377.285156 153.503906 377.195312 152.609375 377.054688 152.289062 C 377.457031 151.75 377.058594 152.226562 377.769531 148.140625 C 376.988281 146.765625 372.4375 141.53125 371.355469 140.761719 L 371.554688 140.800781 C 371.242188 140.703125 368.351562 139.90625 367.535156 139.867188 C 366.21875 139.410156 364.828125 139.273438 363.484375 138.945312 C 363.503906 137.570312 364.289062 136.335938 364.167969 134.527344 C 364.28125 134.460938 364.511719 134.324219 364.621094 134.257812 C 374.992188 140.230469 375 136.710938 382.597656 147.859375 C 383.664062 148.046875 384.722656 148.300781 385.78125 148.539062 C 386.660156 148.359375 393.257812 146.113281 394.070312 144.691406 C 394.714844 143.707031 396.226562 143.378906 396.421875 142.121094 C 396.695312 141.367188 396.847656 135.4375 396.867188 135.269531 C 397.179688 134.496094 397.03125 133.632812 397.058594 132.820312 C 397.472656 132.785156 397.472656 131.566406 397.066406 131.511719 C 397.0625 131.40625 397.042969 131.195312 397.035156 131.089844 C 391.785156 116.894531 391.683594 118.089844 390.238281 117.128906 C 387.378906 115.304688 384.851562 113 381.984375 111.183594 C 377.816406 115.285156 365.746094 130.449219 365.378906 131.035156 C 364.207031 131.496094 362.960938 131.851562 361.792969 132.34375 C 361.191406 132.390625 360.617188 132.566406 360.085938 132.835938 C 359.066406 133.027344 358.152344 133.53125 357.179688 133.859375 C 356.863281 135.289062 356.203125 136.597656 355.554688 137.898438 C 355.378906 138.773438 355.433594 139.691406 355.507812 140.578125 C 355.898438 141.535156 356.21875 142.515625 356.433594 143.53125 C 356.402344 143.515625 350.167969 140.78125 350.089844 140.753906 C 349.984375 138.9375 350.078125 137.117188 350.050781 135.300781 C 350.21875 135.15625 354.054688 131.675781 354.570312 130.804688 C 354.953125 130.753906 355.367188 130.765625 355.730469 130.585938 C 363.410156 129.652344 363.015625 128.59375 368.097656 123.65625 C 369.585938 122.199219 370.253906 120.179688 371.367188 118.464844 C 375.304688 112.15625 374.902344 110.667969 376.832031 105.867188 C 376.519531 105.164062 376.335938 104.417969 376.320312 103.652344 L 376.21875 103.484375 C 374.761719 96.398438 376.171875 99.199219 366.886719 91.613281 C 354.167969 86.871094 362.355469 84.863281 349.707031 88.5625 C 336.53125 97.792969 348.441406 90.046875 336.164062 104.167969 C 326.328125 118.589844 333.683594 106.273438 327.027344 122.300781 C 326.648438 123.191406 328.089844 126.621094 328.160156 126.792969 C 328.199219 127.539062 328.363281 128.28125 328.648438 128.980469 C 328.652344 129.097656 328.664062 129.332031 328.667969 129.449219 C 327.917969 128.800781 324.261719 123.972656 324.039062 123.402344 C 323.914062 121.246094 323.105469 119.148438 323.296875 116.976562 C 323.75 116.34375 330.242188 103.972656 336.472656 97.90625 C 336.628906 97.558594 338.023438 93.058594 338.136719 92.246094 C 338.644531 91.25 338.75 90.117188 339.171875 89.09375 C 339.332031 88.351562 346.199219 85.304688 348.914062 83.492188 C 348.574219 82.925781 341.421875 72.9375 340.359375 72.558594 C 340.191406 72.484375 331.089844 68.402344 330.554688 68.035156 C 330.34375 67.882812 330.117188 67.816406 329.867188 67.839844 L 329.859375 67.550781 C 329.085938 67.550781 328.316406 67.5625 327.546875 67.507812 C 327.417969 67.457031 319.695312 66.257812 317.882812 66.144531 L 317.878906 65.929688 C 315.761719 65.835938 313.6875 65.316406 311.570312 65.144531 C 310.953125 64.871094 310.214844 64.882812 309.601562 65.148438 M 358.113281 76.542969 C 357.074219 77.640625 355.90625 78.621094 354.953125 79.792969 C 355.410156 80.925781 355.941406 82.058594 356.667969 83.050781 C 358.75 82.980469 360.816406 83.304688 362.871094 83.617188 C 367.117188 86.457031 376.03125 91.628906 376.03125 91.628906 C 376.757812 92.539062 380.632812 99.101562 381.253906 100.246094 C 381.726562 102.613281 381.972656 105.03125 382.308594 107.425781 C 382.410156 107.457031 382.613281 107.519531 382.714844 107.550781 L 382.746094 107.679688 C 384.992188 108.554688 386.941406 110.027344 389.195312 110.898438 C 390.804688 112.1875 392.488281 113.382812 394.121094 114.652344 C 394.601562 113.214844 394.707031 111.652344 395.410156 110.296875 C 382.5625 84.511719 388.9375 95.78125 384.800781 90.378906 C 384.109375 89.382812 383.113281 88.640625 382.496094 87.589844 C 382.175781 87.332031 381.839844 87.097656 381.476562 86.929688 C 382.164062 89.175781 383.726562 93.949219 384.054688 96.34375 C 383.171875 95.273438 376.136719 82.140625 376.050781 81.972656 C 368.933594 75.507812 366.699219 76.222656 360.878906 73.859375 C 359.867188 74.65625 359.042969 75.664062 358.113281 76.542969 M 376.894531 75.824219 C 377.039062 75.972656 377.039062 75.972656 376.894531 75.824219 M 38.378906 91.234375 C 37.589844 91.199219 32.089844 92.785156 31.5625 93.023438 C 23.027344 96.867188 25.664062 95.453125 19.757812 102.375 C 18.742188 103.558594 18.4375 103.082031 15.71875 108.199219 C 13.464844 112.402344 13.703125 110.925781 13.644531 113.367188 C 13.699219 115.367188 12.941406 120.863281 15.339844 124.335938 C 26.957031 123.929688 22.003906 119.933594 25.953125 117.660156 C 24.179688 114.082031 24.960938 113.992188 24.152344 110.574219 C 24.054688 110.035156 23.824219 109.421875 24.226562 108.953125 C 28.628906 102.136719 26.941406 101.988281 32.738281 97.5 C 33.082031 97.242188 38.265625 92.421875 39.078125 91.441406 C 39.9375 91.21875 38.445312 90.574219 38.378906 91.234375 M 391.59375 95.402344 C 398.324219 109.589844 402.878906 109.925781 397.773438 119.453125 C 401.839844 130.226562 400.339844 131.328125 401.945312 135.960938 C 401.980469 136.632812 401.9375 137.316406 402.136719 137.96875 L 402.1875 137.730469 C 402.117188 138.210938 402.257812 137.40625 401.113281 142.988281 C 401.308594 143.964844 403.453125 148.652344 404.65625 152.160156 L 404.777344 152.121094 C 404.941406 152.726562 405.148438 153.320312 405.417969 153.890625 C 405.539062 153.199219 405.652344 152.503906 405.726562 151.808594 C 406.066406 151.425781 407.824219 144.484375 408.101562 140.617188 L 407.84375 140.621094 C 407.953125 137.617188 406.394531 126.792969 405.921875 121.066406 L 405.808594 120.859375 C 405.21875 111.636719 403.542969 108.691406 399.21875 100.636719 C 397.421875 99.144531 393.117188 96.246094 392.328125 95.933594 C 392.371094 95.558594 391.804688 95.582031 391.59375 95.402344 M 30.234375 120.605469 C 25.417969 122.46875 27.375 121.890625 26.210938 127.160156 C 26.167969 127.332031 25.625 140.289062 23.375 143.816406 C 20.859375 147.875 18.589844 153.960938 19.265625 158.894531 C 20.269531 165.113281 19.011719 161.667969 22.554688 166.445312 C 23.207031 167.394531 29.960938 172.621094 31.457031 173.0625 C 37.332031 175.125 38.816406 176.109375 41.480469 176.894531 C 63.285156 183.238281 53.164062 182.40625 67.152344 182.40625 C 63.050781 179.132812 64.09375 178.140625 59.339844 176.433594 C 45.734375 172.335938 46.433594 173.335938 35.808594 165.648438 C 34.648438 164.554688 34.066406 163.03125 33.082031 161.800781 C 30.746094 158.1875 32.851562 163.160156 27.769531 151.648438 C 27.578125 149.136719 28.34375 146.695312 28.503906 144.207031 C 29.472656 143.234375 30.394531 142.210938 31.441406 141.320312 C 30.75 148.085938 28.4375 152.648438 37.949219 163.976562 C 41.394531 168.5625 66.960938 174.820312 69.710938 177.800781 C 79.246094 187.835938 91.957031 191.296875 105.675781 191.949219 C 108.578125 192.113281 106.785156 191.816406 110.851562 188.53125 C 110.851562 188.53125 116.601562 184.40625 116.601562 184.40625 C 118.816406 181.582031 119.386719 176.113281 119.515625 175.433594 C 118.691406 174.941406 117.878906 174.425781 117.046875 173.945312 C 116.382812 176.125 115.878906 180.515625 114.574219 181.4375 C 109.070312 185.609375 110.769531 185.015625 108.429688 185.398438 C 107.40625 185.5 99.5 186.253906 97.726562 185.96875 C 84.054688 185.4375 87.207031 185.617188 82.023438 182.414062 C 74.457031 177.851562 76.558594 178.457031 73.5 175.1875 C 72.824219 174.234375 71.847656 173.539062 71.191406 172.574219 C 70.527344 171.136719 69.976562 169.648438 69.265625 168.234375 C 69.054688 168.257812 68.84375 168.277344 68.636719 168.304688 C 68.609375 168.234375 63.367188 155.222656 63.367188 155.222656 C 55.386719 154.3125 43.136719 155.796875 39.277344 132.152344 C 39.546875 128.339844 39.734375 124.515625 40.125 120.714844 C 37.609375 121.617188 33.417969 119.457031 30.234375 120.605469 M 20.136719 127.605469 C 18.230469 128.691406 16.023438 129.164062 14.207031 130.417969 C 14.207031 130.417969 10.082031 137.808594 10.082031 137.808594 C 6.507812 145.074219 7.972656 143.683594 5.824219 148.777344 C 5.429688 149.703125 5.453125 158.8125 5.769531 159.976562 C 6.675781 166.015625 5.632812 164.636719 9.382812 171.097656 C 9.226562 171.328125 9.492188 171.777344 9.785156 171.71875 C 9.980469 171.605469 10.199219 171.316406 10.074219 171.09375 C 11.042969 169.585938 11.148438 167.90625 14.371094 164.882812 C 14.417969 150.75 14.035156 157.070312 16.242188 149.855469 C 16.832031 147.523438 20.4375 141.171875 20.65625 140.863281 C 22.054688 138.832031 20.90625 140.746094 21.917969 127.417969 C 21.320312 127.402344 20.710938 127.417969 20.136719 127.605469 M 411.410156 133.886719 C 411.320312 134.507812 411.332031 135.175781 411.738281 135.699219 C 411.472656 137.40625 411.675781 139.144531 411.617188 140.867188 L 411.859375 140.871094 C 411.992188 143.492188 410.871094 149.726562 409.050781 153.558594 C 407.507812 157.289062 406.148438 158.917969 406.273438 159.855469 C 409.171875 185.835938 408.828125 169.691406 406.773438 190.035156 C 406.628906 191.898438 405.761719 191.886719 408.285156 198.671875 C 408.523438 206.570312 407.867188 210.5625 407.867188 210.5625 C 411.269531 205.289062 413.015625 191.613281 412.359375 189.949219 C 412.230469 188.445312 412.625 186.859375 412.105469 185.414062 C 412.042969 184.265625 412.214844 183.078125 411.882812 181.964844 C 411.859375 181.152344 412.027344 180.273438 411.601562 179.53125 C 411.730469 173.851562 413.425781 153.28125 413.183594 149.3125 C 413.371094 149.023438 413.382812 148.589844 413.238281 148.289062 C 413.296875 148.21875 413.414062 148.082031 413.46875 148.011719 C 413.355469 147.691406 412.542969 137.953125 412.398438 137.769531 C 412.253906 137.132812 412.207031 136.445312 411.863281 135.882812 C 411.855469 135.191406 411.640625 134.523438 411.410156 133.886719 M 417.777344 150.898438 C 414.421875 163.851562 418.089844 190.273438 416.515625 195.320312 C 414.628906 205.417969 417.386719 205.335938 394.488281 241.671875 C 392.960938 244.058594 393.609375 244.039062 389.5625 245.964844 C 389.503906 247.488281 389.652344 249.019531 389.464844 250.535156 C 387.871094 257.917969 388.441406 259.417969 387.585938 260.371094 C 381.257812 267.191406 386.9375 264.574219 373.859375 267.335938 C 372.9375 267.542969 372 267.507812 371.070312 267.519531 C 369.265625 266.578125 362.648438 267.917969 359.15625 265.460938 C 358.367188 264.886719 351.585938 260.011719 349.230469 258.710938 C 347.609375 258.355469 345.941406 258.132812 344.28125 258.101562 C 343.449219 257.6875 342.503906 257.859375 341.613281 257.835938 C 324.28125 251.085938 339.265625 258.933594 322.605469 246.8125 C 319.792969 248.476562 316.773438 249.761719 313.894531 251.300781 C 316.613281 256.324219 312.117188 252.152344 321.609375 259.769531 C 322.980469 260.648438 324.503906 261.257812 325.941406 262.015625 C 329.867188 263.785156 328.949219 264.671875 333.765625 264.707031 C 334.902344 265.117188 340.539062 265.003906 341.714844 265.273438 C 342.640625 265.414062 353.410156 268.609375 360.09375 272.972656 C 360.671875 273.394531 369.898438 275.054688 370.652344 275.046875 C 371.523438 275.402344 372.539062 275.414062 373.402344 275.035156 C 390.589844 270.398438 383.050781 274.277344 394.890625 265.808594 C 396.425781 264.75 397.824219 263.480469 399.476562 262.589844 C 398.320312 264.59375 396.613281 266.191406 395.222656 268.023438 C 392.972656 270.664062 393.867188 272.007812 380.289062 277.78125 C 383.585938 277.835938 386.894531 277.863281 390.183594 277.773438 C 401.539062 272 403.894531 266.910156 406.625 264.386719 C 406.769531 264.25 414.773438 253.179688 415.121094 252.539062 C 415.605469 252.042969 416.253906 251.429688 416.023438 250.667969 C 416.65625 246.804688 416.894531 242.878906 417.742188 239.046875 C 411.851562 246.765625 406.253906 253.027344 406.253906 253.027344 C 407.457031 250.699219 414.304688 238.71875 416.484375 233.636719 L 416.785156 233.679688 C 416.785156 233.570312 416.800781 216.339844 416.820312 216.230469 C 418.375 218.3125 418.972656 220.964844 420.640625 222.960938 C 421.140625 220.875 424.28125 206.078125 424.328125 204.070312 C 424.277344 185.691406 424.449219 186.570312 424.101562 185.648438 C 424.039062 181.800781 423.011719 174.824219 422.886719 174.601562 C 422.488281 162.351562 419.789062 156.582031 417.777344 150.898438 M 18.109375 170.476562 C 17.328125 172.371094 17.046875 174.417969 16.445312 176.371094 C 16.074219 177.203125 18.292969 183.066406 18.9375 184.164062 C 34.300781 193.996094 27.105469 183.726562 66.476562 194.917969 C 72.636719 197.203125 83.796875 206.34375 83.796875 206.34375 C 84.285156 206.914062 85.085938 206.683594 85.738281 206.707031 C 86.25 206.824219 86.773438 206.863281 87.296875 206.902344 C 90.125 208.007812 93.304688 207.015625 96.042969 205.707031 C 95.828125 205.351562 89.753906 195.539062 88.484375 194.976562 C 88.386719 194.929688 71.054688 186.375 70.949219 186.402344 C 55.949219 188.539062 58.601562 187.824219 55.269531 187.367188 C 54.59375 187.011719 53.835938 186.863281 53.078125 186.863281 C 51.699219 186.34375 50.222656 186.171875 48.804688 185.789062 C 36.347656 183.078125 36.648438 181.578125 29.582031 179.160156 C 23.863281 177.320312 23.621094 175.78125 22.601562 174.863281 C 21.09375 173.410156 19.679688 171.859375 18.109375 170.476562 M 11.832031 180.039062 C 11.785156 180.667969 11.601562 186.804688 11.972656 187.617188 C 15.105469 194.847656 13.296875 193.109375 16.425781 195.609375 C 21.242188 199.429688 21.550781 199.476562 22.054688 199.597656 C 28.003906 201.023438 30 203.097656 37.519531 203.664062 C 66.617188 207.609375 62.085938 209.753906 87.457031 218.953125 C 88.964844 219.035156 90.457031 218.636719 91.957031 218.519531 C 92.328125 216.601562 93.015625 214.75 93.242188 212.804688 C 88.0625 212.738281 90.679688 215.671875 77.679688 206.011719 C 65.894531 197.082031 68.847656 199.25 58.148438 196.1875 C 53.222656 194.917969 41.816406 192.914062 40.15625 192.964844 C 39.820312 192.847656 39.46875 192.789062 39.117188 192.765625 L 38.90625 192.59375 C 37.167969 192.242188 27.324219 192.839844 26.152344 192.246094 C 25.984375 192.167969 18.613281 188.652344 18.269531 188.355469 C 14.0625 184.628906 13.460938 184.777344 13.140625 183.863281 C 12.667969 182.601562 12.402344 181.265625 11.832031 180.039062 M 407.652344 210.703125 C 407.277344 211.398438 408.425781 210.746094 407.652344 210.703125 M 326.175781 244.175781 C 334.207031 252.667969 332.964844 251.144531 339.488281 253.160156 C 344.714844 254.328125 338.59375 253.808594 350.976562 252.078125 C 352.566406 254.421875 354.644531 256.390625 356.261719 258.722656 C 357.40625 260.480469 359.578125 260.984375 361.375 261.820312 C 364.941406 263.171875 365.070312 264.503906 369.335938 264.457031 L 369.335938 264.191406 C 370.402344 264.253906 377.1875 263.613281 377.527344 263.472656 C 379.621094 262.570312 381.746094 261.734375 383.839844 260.816406 C 384.710938 257.707031 384.871094 254.441406 385.707031 251.320312 C 385.042969 249.265625 383.828125 247.425781 383.277344 245.320312 C 372.195312 242.171875 375.382812 245.539062 371.246094 241.148438 C 370.816406 240.726562 362.910156 232 362.394531 231.683594 C 359.230469 231.152344 357.546875 230.058594 347.910156 228.78125 C 346.773438 228.636719 345.652344 228.410156 344.546875 228.140625 C 344.121094 226.703125 343.785156 225.242188 343.421875 223.789062 C 341.320312 227.8125 326.296875 244.007812 326.175781 244.175781 Z M 326.175781 244.175781 " fill-opacity="1" fill-rule="nonzero"/></g><path fill="#87adcf" d="M 263.699219 29.152344 C 262.085938 29.414062 260.511719 28.878906 258.914062 28.765625 C 244.441406 26.8125 251.78125 27.460938 239.648438 29.96875 C 238.441406 30.265625 238.945312 29.457031 233.246094 36.527344 C 233.097656 40.542969 233.476562 43.871094 232.960938 45.136719 C 230.800781 50.429688 231.769531 50.46875 229.726562 52.246094 C 228.453125 53.289062 227.324219 54.535156 225.859375 55.316406 C 226.304688 52.726562 230.078125 47.355469 228.429688 42.335938 C 225.378906 35.964844 227.582031 37.394531 219.855469 32.820312 C 213.144531 28.699219 214.632812 30.578125 204.71875 29.367188 C 202.585938 28.953125 201.023438 30.699219 188.421875 36.511719 C 187.308594 35.601562 186.191406 34.652344 184.964844 33.902344 C 168.777344 31.082031 160.632812 37.300781 153.035156 42.277344 C 149.703125 44.6875 143.019531 46.390625 135.992188 49.605469 C 135.332031 49.773438 122.3125 51.726562 120.847656 51.472656 C 114.460938 49.644531 113.699219 49.808594 110.621094 48.855469 C 143.378906 48.074219 140.527344 43.59375 153.324219 37.402344 C 157.777344 34.980469 165.011719 30.800781 166.582031 30.546875 C 179.273438 28.226562 170.347656 26.308594 187.140625 28.464844 C 188.839844 28.691406 190.589844 29.484375 192.269531 28.691406 C 194.777344 27.828125 197.355469 27.070312 199.703125 25.804688 C 204.441406 24.40625 220.804688 26.617188 225.714844 27.9375 C 232.671875 29.746094 231.3125 15.167969 263.699219 29.152344 Z M 263.699219 29.152344 " fill-opacity="1" fill-rule="nonzero"/><path fill="#87adcf" d="M 182.296875 44.246094 C 177.890625 65.226562 179.878906 64.78125 181.359375 71.308594 C 175.734375 66.617188 176.726562 66.609375 175.953125 59.09375 C 175.914062 58.832031 175.3125 50.65625 182.296875 44.246094 Z M 182.296875 44.246094 " fill-opacity="1" fill-rule="nonzero"/><path fill="#87adcf" d="M 328.105469 83.5 C 323.269531 86.582031 316.992188 89.769531 310.28125 95.191406 C 313.132812 96.964844 316.277344 98.210938 319.1875 99.886719 C 303.1875 97.734375 309.242188 97.441406 297.226562 99.777344 C 291.867188 100.960938 295.691406 98.1875 281.335938 109.5 C 281.234375 109.667969 274.394531 120.039062 274.152344 120.308594 C 274.949219 114.667969 274.335938 116.078125 276.285156 111.957031 C 279.363281 105.902344 278.261719 108.085938 282.222656 104.503906 C 289.609375 98.367188 289.535156 98.71875 289.96875 97.917969 C 315.648438 93.667969 304.976562 88.664062 328.105469 83.5 Z M 328.105469 83.5 " fill-opacity="1" fill-rule="nonzero"/><path fill="#87adcf" d="M 333.160156 143.988281 C 334.257812 146.460938 335.28125 155.15625 336.738281 156.0625 C 336.742188 156.0625 343.550781 160.769531 343.550781 160.769531 C 344.136719 161.371094 349.085938 161.742188 353.824219 162.710938 C 355.214844 163.070312 357.386719 161.851562 358.046875 161.617188 C 363.367188 159.46875 360.175781 161.542969 363.21875 158.007812 C 364.34375 156.546875 365.632812 155.191406 366.519531 153.554688 C 366.640625 153.253906 366.933594 153.105469 367.199219 152.9375 C 367.152344 153.023438 365.425781 157.300781 363.558594 161.160156 C 361.605469 163.054688 358.019531 165.621094 357.441406 166.667969 C 357.441406 166.667969 348.351562 165.746094 348.351562 165.746094 C 348.183594 165.621094 338.496094 161.382812 337.445312 161.234375 C 334.652344 154.578125 332.40625 158.917969 333.160156 143.988281 Z M 333.160156 143.988281 " fill-opacity="1" fill-rule="nonzero"/><path fill="#87adcf" d="M 298.554688 162.054688 C 300.589844 162.886719 310.21875 165.445312 312.839844 166.097656 C 313.007812 166.179688 335.691406 177.171875 337.78125 178.382812 C 337.613281 178.339844 306.3125 166.800781 303.519531 166.503906 C 303.519531 166.503906 290.273438 165.929688 284.03125 165.789062 C 283.601562 165.769531 270.054688 167.378906 269.40625 167.425781 C 270.511719 166.046875 272.175781 165.210938 273.128906 163.683594 C 276.675781 163.703125 282.070312 161.101562 298.554688 162.054688 Z M 298.554688 162.054688 " fill-opacity="1" fill-rule="nonzero"/><path fill="#87adcf" d="M 212.339844 204.894531 C 212.339844 204.894531 225.179688 214.527344 225.179688 214.527344 C 243.027344 221.882812 238.386719 219.433594 245.367188 220.410156 C 249.980469 221.164062 251.613281 221.21875 260.066406 218.457031 C 261.644531 218.402344 258.644531 213.941406 257.890625 209.898438 C 259.582031 210.945312 259.335938 211.167969 267.933594 218.0625 C 269.992188 218.886719 277.007812 219.429688 281.816406 220.601562 C 285.238281 221.234375 286.367188 220.269531 299.027344 219.742188 C 333.777344 209.988281 319.433594 212.90625 334.886719 207.550781 C 334.722656 207.714844 322.582031 217.566406 321.269531 218.265625 C 321.101562 218.363281 313.773438 222.617188 313.363281 223.046875 C 312.4375 225.234375 309.90625 229.976562 309.90625 229.976562 C 309.707031 227.84375 308.957031 223.125 308.933594 222.957031 C 308.765625 222.96875 288.511719 226.808594 276.304688 224.015625 C 276.136719 223.976562 263.886719 221.210938 262.464844 221.113281 C 259.441406 222.484375 255.351562 224.820312 254.683594 224.753906 C 240.886719 224.789062 241.492188 224.800781 240.773438 224.539062 C 239.203125 224.035156 228.875 221.699219 222.480469 218.390625 C 206.53125 227.097656 196.144531 225.695312 187.234375 225.6875 C 184.308594 225.078125 181.523438 223.90625 178.703125 222.929688 C 176.464844 221.394531 174.214844 219.84375 172.09375 218.136719 C 187.070312 222.308594 188.210938 224.910156 207.964844 220.550781 C 209.160156 220.222656 210.441406 220.082031 211.515625 219.410156 C 214.089844 217.699219 216.972656 216.507812 219.425781 214.605469 C 217.160156 211.300781 214.609375 208.195312 212.339844 204.894531 Z M 212.339844 204.894531 " fill-opacity="1" fill-rule="nonzero"/><path fill="#87adcf" d="M 177.203125 229.695312 C 168.382812 235.90625 167.265625 235.449219 167.542969 236.183594 C 168.78125 237.074219 174.277344 239.863281 175.148438 240.355469 C 180.058594 241.46875 182.457031 243.847656 194.757812 243.988281 C 220.796875 243.902344 226.863281 239.382812 244.667969 234.242188 C 245.710938 234.03125 246.601562 233.289062 247.714844 233.421875 C 240.683594 236.8125 223.230469 244.332031 209.980469 247.710938 C 197.089844 248.773438 178.480469 249.8125 167.027344 243.777344 C 162.648438 241.582031 159.730469 237.664062 158.367188 237.921875 C 151.816406 239.128906 144.234375 239.4375 130.664062 249.226562 C 126.867188 251.566406 129.339844 250.136719 122.417969 251.46875 C 120.410156 251.074219 118.515625 250.269531 116.640625 249.480469 C 129.03125 248.710938 122.121094 250.679688 128.332031 247.359375 C 134.664062 243.710938 132.078125 243.992188 141.085938 238.027344 C 141.253906 237.929688 147.390625 234.21875 148.140625 234.046875 C 165.460938 230.222656 158.195312 230.84375 169.554688 230.0625 C 169.933594 229.980469 174.828125 229.574219 177.203125 229.695312 Z M 177.203125 229.695312 " fill-opacity="1" fill-rule="nonzero"/></g></g></g></svg>